G04 ================== begin FILE IDENTIFICATION RECORD ==================*
G04 Layout Name:  C:/Masinuta_Wi-Fi/allegro/MASINUTA_WI-FI.brd*
G04 Film Name:    MECANIC*
G04 File Format:  Gerber RS274X*
G04 File Origin:  Cadence Allegro 16.6-2015-S059*
G04 Origin Date:  Sat May 20 14:57:13 2023*
G04 *
G04 Layer:  DRAWING FORMAT/DRAWING_ORIGIN*
G04 Layer:  MANUFACTURING/NCDRILL_LEGEND*
G04 Layer:  MANUFACTURING/NCDRILL_FIGURE*
G04 Layer:  MANUFACTURING/XSECTION_CHART*
G04 Layer:  MANUFACTURING/NCLEGEND-1-2*
G04 Layer:  BOARD GEOMETRY/OUTLINE*
G04 Layer:  BOARD GEOMETRY/DIMENSION*
G04 *
G04 Offset:    (0.00 0.00)*
G04 Mirror:    No*
G04 Mode:      Positive*
G04 Rotation:  0*
G04 FullContactRelief:  No*
G04 UndefLineWidth:     10.00*
G04 ================== end FILE IDENTIFICATION RECORD ====================*
%FSLAX25Y25*MOIN*%
%IR0*IPPOS*OFA0.00000B0.00000*MIA0B0*SFA1.00000B1.00000*%
%AMMACRO10*
1,1,.01,.025,0.0*
20,1,.01,.025,0.0,-.025,0.0,0.0*
1,1,.01,-.025,0.0*
1,1,.01,0.0,.025*
20,1,.01,0.0,.025,0.0,-.025,0.0*
1,1,.01,0.0,-.025*
%
%ADD10MACRO10*%
%AMMACRO11*
1,1,.01,.0765,0.0*
20,1,.01,.0765,0.0,.075338,-.013284,0.0*
1,1,.01,.075338,-.013284*
20,1,.01,.075338,-.013284,.071886,-.026165,0.0*
1,1,.01,.071886,-.026165*
20,1,.01,.071886,-.026165,.066251,-.03825,0.0*
1,1,.01,.066251,-.03825*
20,1,.01,.066251,-.03825,.058602,-.049173,0.0*
1,1,.01,.058602,-.049173*
20,1,.01,.058602,-.049173,.049173,-.058602,0.0*
1,1,.01,.049173,-.058602*
20,1,.01,.049173,-.058602,.03825,-.066251,0.0*
1,1,.01,.03825,-.066251*
20,1,.01,.03825,-.066251,.026165,-.071886,0.0*
1,1,.01,.026165,-.071886*
20,1,.01,.026165,-.071886,.013284,-.075338,0.0*
1,1,.01,.013284,-.075338*
20,1,.01,.013284,-.075338,0.0,-.0765,0.0*
1,1,.01,0.0,-.0765*
20,1,.01,0.0,-.0765,-.013284,-.075338,0.0*
1,1,.01,-.013284,-.075338*
20,1,.01,-.013284,-.075338,-.026165,-.071886,0.0*
1,1,.01,-.026165,-.071886*
20,1,.01,-.026165,-.071886,-.03825,-.066251,0.0*
1,1,.01,-.03825,-.066251*
20,1,.01,-.03825,-.066251,-.049173,-.058602,0.0*
1,1,.01,-.049173,-.058602*
20,1,.01,-.049173,-.058602,-.058602,-.049173,0.0*
1,1,.01,-.058602,-.049173*
20,1,.01,-.058602,-.049173,-.066251,-.03825,0.0*
1,1,.01,-.066251,-.03825*
20,1,.01,-.066251,-.03825,-.071886,-.026165,0.0*
1,1,.01,-.071886,-.026165*
20,1,.01,-.071886,-.026165,-.075338,-.013284,0.0*
1,1,.01,-.075338,-.013284*
20,1,.01,-.075338,-.013284,-.0765,0.0,0.0*
1,1,.01,-.0765,0.0*
20,1,.01,-.0765,0.0,-.075338,.013284,0.0*
1,1,.01,-.075338,.013284*
20,1,.01,-.075338,.013284,-.071886,.026165,0.0*
1,1,.01,-.071886,.026165*
20,1,.01,-.071886,.026165,-.066251,.03825,0.0*
1,1,.01,-.066251,.03825*
20,1,.01,-.066251,.03825,-.058602,.049173,0.0*
1,1,.01,-.058602,.049173*
20,1,.01,-.058602,.049173,-.049173,.058602,0.0*
1,1,.01,-.049173,.058602*
20,1,.01,-.049173,.058602,-.03825,.066251,0.0*
1,1,.01,-.03825,.066251*
20,1,.01,-.03825,.066251,-.026165,.071886,0.0*
1,1,.01,-.026165,.071886*
20,1,.01,-.026165,.071886,-.013284,.075338,0.0*
1,1,.01,-.013284,.075338*
20,1,.01,-.013284,.075338,0.0,.0765,0.0*
1,1,.01,0.0,.0765*
20,1,.01,0.0,.0765,.013284,.075338,0.0*
1,1,.01,.013284,.075338*
20,1,.01,.013284,.075338,.026165,.071886,0.0*
1,1,.01,.026165,.071886*
20,1,.01,.026165,.071886,.03825,.066251,0.0*
1,1,.01,.03825,.066251*
20,1,.01,.03825,.066251,.049173,.058602,0.0*
1,1,.01,.049173,.058602*
20,1,.01,.049173,.058602,.058602,.049173,0.0*
1,1,.01,.058602,.049173*
20,1,.01,.058602,.049173,.066251,.03825,0.0*
1,1,.01,.066251,.03825*
20,1,.01,.066251,.03825,.071886,.026165,0.0*
1,1,.01,.071886,.026165*
20,1,.01,.071886,.026165,.075338,.013284,0.0*
1,1,.01,.075338,.013284*
20,1,.01,.075338,.013284,.0765,0.0,0.0*
1,1,.01,.0765,0.0*
%
%ADD11MACRO11*%
%AMMACRO13*
1,1,.01,.025,0.0*
20,1,.01,.025,0.0,.02462,-.004341,0.0*
1,1,.01,.02462,-.004341*
20,1,.01,.02462,-.004341,.023492,-.008551,0.0*
1,1,.01,.023492,-.008551*
20,1,.01,.023492,-.008551,.021651,-.0125,0.0*
1,1,.01,.021651,-.0125*
20,1,.01,.021651,-.0125,.019151,-.01607,0.0*
1,1,.01,.019151,-.01607*
20,1,.01,.019151,-.01607,.01607,-.019151,0.0*
1,1,.01,.01607,-.019151*
20,1,.01,.01607,-.019151,.0125,-.021651,0.0*
1,1,.01,.0125,-.021651*
20,1,.01,.0125,-.021651,.008551,-.023492,0.0*
1,1,.01,.008551,-.023492*
20,1,.01,.008551,-.023492,.004341,-.02462,0.0*
1,1,.01,.004341,-.02462*
20,1,.01,.004341,-.02462,0.0,-.025,0.0*
1,1,.01,0.0,-.025*
20,1,.01,0.0,-.025,-.004341,-.02462,0.0*
1,1,.01,-.004341,-.02462*
20,1,.01,-.004341,-.02462,-.008551,-.023492,0.0*
1,1,.01,-.008551,-.023492*
20,1,.01,-.008551,-.023492,-.0125,-.021651,0.0*
1,1,.01,-.0125,-.021651*
20,1,.01,-.0125,-.021651,-.01607,-.019151,0.0*
1,1,.01,-.01607,-.019151*
20,1,.01,-.01607,-.019151,-.019151,-.01607,0.0*
1,1,.01,-.019151,-.01607*
20,1,.01,-.019151,-.01607,-.021651,-.0125,0.0*
1,1,.01,-.021651,-.0125*
20,1,.01,-.021651,-.0125,-.023492,-.008551,0.0*
1,1,.01,-.023492,-.008551*
20,1,.01,-.023492,-.008551,-.02462,-.004341,0.0*
1,1,.01,-.02462,-.004341*
20,1,.01,-.02462,-.004341,-.025,0.0,0.0*
1,1,.01,-.025,0.0*
20,1,.01,-.025,0.0,-.02462,.004341,0.0*
1,1,.01,-.02462,.004341*
20,1,.01,-.02462,.004341,-.023492,.008551,0.0*
1,1,.01,-.023492,.008551*
20,1,.01,-.023492,.008551,-.021651,.0125,0.0*
1,1,.01,-.021651,.0125*
20,1,.01,-.021651,.0125,-.019151,.01607,0.0*
1,1,.01,-.019151,.01607*
20,1,.01,-.019151,.01607,-.01607,.019151,0.0*
1,1,.01,-.01607,.019151*
20,1,.01,-.01607,.019151,-.0125,.021651,0.0*
1,1,.01,-.0125,.021651*
20,1,.01,-.0125,.021651,-.008551,.023492,0.0*
1,1,.01,-.008551,.023492*
20,1,.01,-.008551,.023492,-.004341,.02462,0.0*
1,1,.01,-.004341,.02462*
20,1,.01,-.004341,.02462,0.0,.025,0.0*
1,1,.01,0.0,.025*
20,1,.01,0.0,.025,.004341,.02462,0.0*
1,1,.01,.004341,.02462*
20,1,.01,.004341,.02462,.008551,.023492,0.0*
1,1,.01,.008551,.023492*
20,1,.01,.008551,.023492,.0125,.021651,0.0*
1,1,.01,.0125,.021651*
20,1,.01,.0125,.021651,.01607,.019151,0.0*
1,1,.01,.01607,.019151*
20,1,.01,.01607,.019151,.019151,.01607,0.0*
1,1,.01,.019151,.01607*
20,1,.01,.019151,.01607,.021651,.0125,0.0*
1,1,.01,.021651,.0125*
20,1,.01,.021651,.0125,.023492,.008551,0.0*
1,1,.01,.023492,.008551*
20,1,.01,.023492,.008551,.02462,.004341,0.0*
1,1,.01,.02462,.004341*
20,1,.01,.02462,.004341,.025,0.0,0.0*
1,1,.01,.025,0.0*
1,1,.01,.0125,0.0*
20,1,.01,.0125,0.0,-.0125,0.0,0.0*
1,1,.01,-.0125,0.0*
1,1,.01,0.0,.0125*
20,1,.01,0.0,.0125,0.0,-.0125,0.0*
1,1,.01,0.0,-.0125*
%
%ADD13MACRO13*%
%AMMACRO12*
1,1,.01,.019685,0.0*
20,1,.01,.019685,0.0,-.019685,0.0,0.0*
1,1,.01,-.019685,0.0*
1,1,.01,0.0,.019685*
20,1,.01,0.0,.019685,0.0,-.019685,0.0*
1,1,.01,0.0,-.019685*
%
%ADD12MACRO12*%
%ADD14C,.01*%
G75*
%LPD*%
G75*
G36*
G01X-263350Y466598D02*
Y368006D01*
X-260850D01*
Y363590D01*
X-263350D01*
Y264998D01*
X-248350D01*
Y363590D01*
X-250850D01*
Y368006D01*
X-248350D01*
Y466598D01*
X-263350D01*
G37*
G36*
G01X-283350Y264998D02*
Y363590D01*
X-223350D01*
Y264998D01*
X-283350D01*
G37*
G36*
G01Y368006D02*
Y466598D01*
X-223350D01*
Y368006D01*
X-283350D01*
G37*
G54D10*
X0Y0D03*
G54D11*
X20000Y20000D03*
Y531000D03*
X44450Y628000D03*
X334500Y20000D03*
Y531000D03*
G54D12*
X29362Y51976D03*
Y174024D03*
X30000Y229000D03*
X20000D03*
X30000Y259000D03*
X20000D03*
X30000Y288000D03*
X20000D03*
X32000Y343283D03*
Y353283D03*
X19079Y457400D03*
X28921D03*
X18779Y490600D03*
X28621D03*
X61016Y174024D03*
X51016D03*
X57000Y229000D03*
Y259000D03*
Y288000D03*
X62000Y343283D03*
X52000D03*
X42000D03*
X62000Y353283D03*
X52000D03*
X42000D03*
X50079Y456100D03*
X59921D03*
X49279Y490300D03*
X59121D03*
X63000Y526000D03*
X53000D03*
X44450Y603000D03*
Y678000D03*
Y653000D03*
Y703000D03*
Y728000D03*
X91016Y174024D03*
X81016D03*
X71016D03*
X67000Y229000D03*
Y259000D03*
Y288000D03*
X121016Y174024D03*
X111016D03*
X101016D03*
X117000Y338000D03*
X107000D03*
X102500Y367000D03*
Y377000D03*
Y387000D03*
Y397000D03*
Y407000D03*
Y417000D03*
X113800Y453400D03*
X103800D03*
X93800D03*
X131016Y174024D03*
X151016D03*
X141016D03*
X137000Y338000D03*
X127000D03*
X142500Y377000D03*
Y367000D03*
Y407000D03*
Y397000D03*
Y387000D03*
Y417000D03*
X153400Y453300D03*
X143400D03*
X181016Y174024D03*
X171016D03*
X161016D03*
X163400Y453300D03*
X201016Y174024D03*
X191016D03*
X196000Y267000D03*
Y277000D03*
Y287000D03*
Y297000D03*
Y307000D03*
Y317000D03*
Y327000D03*
Y337000D03*
Y347000D03*
Y357000D03*
Y367000D03*
Y377000D03*
Y387000D03*
Y397000D03*
Y407000D03*
Y417000D03*
Y427000D03*
Y437000D03*
Y447000D03*
Y457000D03*
X256000Y287000D03*
Y277000D03*
Y267000D03*
Y317000D03*
Y307000D03*
Y297000D03*
Y347000D03*
Y337000D03*
Y327000D03*
Y377000D03*
Y367000D03*
Y357000D03*
Y407000D03*
Y397000D03*
Y387000D03*
Y437000D03*
Y427000D03*
Y417000D03*
Y457000D03*
Y447000D03*
X268000Y520000D03*
Y510000D03*
X296000Y201000D03*
Y225000D03*
X285000Y248000D03*
Y258000D03*
Y268000D03*
Y278000D03*
Y288000D03*
Y298000D03*
Y308000D03*
X298000Y520000D03*
X288000D03*
X278000D03*
X298000Y510000D03*
X288000D03*
X278000D03*
X324638Y51976D03*
Y174024D03*
X325000Y201000D03*
X306000D03*
X325000Y225000D03*
X306000D03*
X315000Y258000D03*
Y248000D03*
Y288000D03*
Y278000D03*
Y268000D03*
X331500Y304000D03*
X315000Y308000D03*
Y298000D03*
X330606Y380000D03*
X311394D03*
X332591Y411283D03*
X307000D03*
X332591Y429000D03*
X307000D03*
X330000Y457000D03*
X320000D03*
X310000D03*
X308000Y520000D03*
Y510000D03*
X335000Y201000D03*
Y225000D03*
X341500Y304000D03*
G54D13*
X61000Y244500D03*
X44450Y753000D03*
X79000Y300000D03*
X84500Y353283D03*
X109000Y242000D03*
X100500Y273000D03*
X99000Y262000D03*
X101500Y300000D03*
X96000Y359500D03*
X143500Y226500D03*
X128500Y243000D03*
X122500Y235000D03*
X134500Y300500D03*
X122500Y307000D03*
X131000Y428000D03*
X160000Y220500D03*
X174750Y211750D03*
X171000Y220000D03*
X162500Y234000D03*
X158000Y261500D03*
X159500Y304000D03*
X153000Y330000D03*
X177000Y324000D03*
X164500Y357000D03*
X173000Y402500D03*
X161500Y401500D03*
X159750Y419250D03*
X191000Y191000D03*
X185500Y210500D03*
X192000Y256000D03*
X196000Y249500D03*
X211000Y255500D03*
X187300Y483200D03*
X234000Y251500D03*
X218000Y255000D03*
X233000Y357000D03*
X224000Y469600D03*
X267500Y315500D03*
X268000Y462500D03*
X246000Y478000D03*
X287000Y319500D03*
X290500Y347000D03*
X273000Y337000D03*
X283500Y357000D03*
X300000Y403500D03*
X300500Y442500D03*
X288000Y450000D03*
X278000Y461000D03*
X273000Y468000D03*
X288000Y479500D03*
X298000Y488000D03*
X289500Y493500D03*
X322650Y324350D03*
X315000Y324000D03*
X313500Y351500D03*
X324750Y362750D03*
X303500Y394000D03*
X324000Y398500D03*
X331750Y261250D03*
X344090Y270500D03*
G54D14*
G01X-313603Y246666D02*
Y251666D01*
X-312237D01*
X-311690Y251416D01*
X-311280Y251083D01*
X-310938Y250583D01*
X-310665Y249999D01*
X-310597Y249166D01*
X-310665Y248333D01*
X-310938Y247749D01*
X-311280Y247249D01*
X-311690Y246916D01*
X-312237Y246666D01*
X-313603D01*
G01X-306033D02*
X-308767D01*
Y251666D01*
X-306033D01*
G01X-307127Y249249D02*
X-308767D01*
G01X-304135Y247333D02*
X-303588Y246916D01*
X-302973Y246666D01*
X-302427D01*
X-301880Y246916D01*
X-301470Y247333D01*
X-301265Y247916D01*
X-301402Y248499D01*
X-301743Y248999D01*
X-302358Y249333D01*
X-303178Y249499D01*
X-303657Y249833D01*
X-303862Y250416D01*
X-303725Y250999D01*
X-303383Y251416D01*
X-302905Y251666D01*
X-302427D01*
X-301948Y251499D01*
X-301538Y251083D01*
G01X-298820Y251666D02*
X-297180D01*
G01X-298000D02*
Y246666D01*
G01X-298820D02*
X-297180D01*
G01X-292890Y249166D02*
X-291523D01*
Y247666D01*
X-291933Y247166D01*
X-292412Y246833D01*
X-293095Y246666D01*
X-293778Y246833D01*
X-294257Y247166D01*
X-294667Y247666D01*
X-294940Y248249D01*
X-295077Y248916D01*
Y249499D01*
X-294940Y249999D01*
X-294667Y250583D01*
X-294257Y251083D01*
X-293847Y251416D01*
X-293300Y251666D01*
X-292822D01*
X-292275Y251499D01*
X-291865Y251166D01*
G01X-290172Y246666D02*
Y251666D01*
X-287028Y246666D01*
Y251666D01*
G01X-277697Y251249D02*
X-278107Y251499D01*
X-278585Y251666D01*
X-279132D01*
X-279747Y251416D01*
X-280225Y250999D01*
X-280567Y250499D01*
X-280840Y249666D01*
X-280908Y248916D01*
X-280772Y248166D01*
X-280567Y247666D01*
X-280157Y247166D01*
X-279678Y246833D01*
X-279200Y246666D01*
X-278722D01*
X-278243Y246833D01*
X-277833Y247083D01*
X-277492Y247416D01*
G01X-275867Y246666D02*
Y251666D01*
X-274158D01*
X-273612Y251416D01*
X-273270Y251083D01*
X-273133Y250416D01*
X-273270Y249749D01*
X-273680Y249333D01*
X-274158Y249083D01*
X-275867D01*
G01X-274158D02*
X-273133Y246666D01*
G01X-269800D02*
X-270347Y246749D01*
X-270825Y247083D01*
X-271235Y247583D01*
X-271508Y248166D01*
X-271645Y248833D01*
Y249499D01*
X-271508Y250166D01*
X-271235Y250749D01*
X-270825Y251249D01*
X-270347Y251583D01*
X-269800Y251666D01*
X-269253Y251583D01*
X-268775Y251249D01*
X-268365Y250749D01*
X-268092Y250166D01*
X-267955Y249499D01*
Y248833D01*
X-268092Y248166D01*
X-268365Y247583D01*
X-268775Y247083D01*
X-269253Y246749D01*
X-269800Y246666D01*
G01X-266535Y247333D02*
X-265988Y246916D01*
X-265373Y246666D01*
X-264827D01*
X-264280Y246916D01*
X-263870Y247333D01*
X-263665Y247916D01*
X-263802Y248499D01*
X-264143Y248999D01*
X-264758Y249333D01*
X-265578Y249499D01*
X-266057Y249833D01*
X-266262Y250416D01*
X-266125Y250999D01*
X-265783Y251416D01*
X-265305Y251666D01*
X-264827D01*
X-264348Y251499D01*
X-263938Y251083D01*
G01X-261835Y247333D02*
X-261288Y246916D01*
X-260673Y246666D01*
X-260127D01*
X-259580Y246916D01*
X-259170Y247333D01*
X-258965Y247916D01*
X-259102Y248499D01*
X-259443Y248999D01*
X-260058Y249333D01*
X-260878Y249499D01*
X-261357Y249833D01*
X-261562Y250416D01*
X-261425Y250999D01*
X-261083Y251416D01*
X-260605Y251666D01*
X-260127D01*
X-259648Y251499D01*
X-259238Y251083D01*
G01X-252435Y247333D02*
X-251888Y246916D01*
X-251273Y246666D01*
X-250727D01*
X-250180Y246916D01*
X-249770Y247333D01*
X-249565Y247916D01*
X-249702Y248499D01*
X-250043Y248999D01*
X-250658Y249333D01*
X-251478Y249499D01*
X-251957Y249833D01*
X-252162Y250416D01*
X-252025Y250999D01*
X-251683Y251416D01*
X-251205Y251666D01*
X-250727D01*
X-250248Y251499D01*
X-249838Y251083D01*
G01X-244933Y246666D02*
X-247667D01*
Y251666D01*
X-244933D01*
G01X-246027Y249249D02*
X-247667D01*
G01X-240097Y251249D02*
X-240507Y251499D01*
X-240985Y251666D01*
X-241532D01*
X-242147Y251416D01*
X-242625Y250999D01*
X-242967Y250499D01*
X-243240Y249666D01*
X-243308Y248916D01*
X-243172Y248166D01*
X-242967Y247666D01*
X-242557Y247166D01*
X-242078Y246833D01*
X-241600Y246666D01*
X-241122D01*
X-240643Y246833D01*
X-240233Y247083D01*
X-239892Y247416D01*
G01X-236900Y251666D02*
Y246666D01*
G01X-238472Y251666D02*
X-235328D01*
G01X-233020D02*
X-231380D01*
G01X-232200D02*
Y246666D01*
G01X-233020D02*
X-231380D01*
G01X-227500D02*
X-228047Y246749D01*
X-228525Y247083D01*
X-228935Y247583D01*
X-229208Y248166D01*
X-229345Y248833D01*
Y249499D01*
X-229208Y250166D01*
X-228935Y250749D01*
X-228525Y251249D01*
X-228047Y251583D01*
X-227500Y251666D01*
X-226953Y251583D01*
X-226475Y251249D01*
X-226065Y250749D01*
X-225792Y250166D01*
X-225655Y249499D01*
Y248833D01*
X-225792Y248166D01*
X-226065Y247583D01*
X-226475Y247083D01*
X-226953Y246749D01*
X-227500Y246666D01*
G01X-224372D02*
Y251666D01*
X-221228Y246666D01*
Y251666D01*
G01X-211897Y251249D02*
X-212307Y251499D01*
X-212785Y251666D01*
X-213332D01*
X-213947Y251416D01*
X-214425Y250999D01*
X-214767Y250499D01*
X-215040Y249666D01*
X-215108Y248916D01*
X-214972Y248166D01*
X-214767Y247666D01*
X-214357Y247166D01*
X-213878Y246833D01*
X-213400Y246666D01*
X-212922D01*
X-212443Y246833D01*
X-212033Y247083D01*
X-211692Y247416D01*
G01X-210135Y246666D02*
Y251666D01*
G01X-207265D02*
Y246666D01*
G01Y249166D02*
X-210135D01*
G01X-205708Y246666D02*
X-204000Y251666D01*
X-202292Y246666D01*
G01X-202907Y248416D02*
X-205093D01*
G01X-200667Y246666D02*
Y251666D01*
X-198958D01*
X-198412Y251416D01*
X-198070Y251083D01*
X-197933Y250416D01*
X-198070Y249749D01*
X-198480Y249333D01*
X-198958Y249083D01*
X-200667D01*
G01X-198958D02*
X-197933Y246666D01*
G01X-194600Y251666D02*
Y246666D01*
G01X-196172Y251666D02*
X-193028D01*
G01X-316500Y244999D02*
X-312400D01*
G01X-311800D02*
X-307700D01*
G01X-307100D02*
X-303000D01*
G01X-302400D02*
X-298300D01*
G01X-297700D02*
X-293600D01*
G01X-293000D02*
X-288900D01*
G01X-288300D02*
X-284200D01*
G01X-283600D02*
X-279500D01*
G01X-278900D02*
X-274800D01*
G01X-274200D02*
X-270100D01*
G01X-269500D02*
X-265400D01*
G01X-264800D02*
X-260700D01*
G01X-260100D02*
X-256000D01*
G01X-255400D02*
X-251300D01*
G01X-250700D02*
X-246600D01*
G01X-246000D02*
X-241900D01*
G01X-241300D02*
X-237200D01*
G01X-236600D02*
X-232500D01*
G01X-231900D02*
X-227800D01*
G01X-227200D02*
X-223100D01*
G01X-222500D02*
X-218400D01*
G01X-217800D02*
X-213700D01*
G01X-213100D02*
X-209000D01*
G01X-208400D02*
X-204300D01*
G01X-203700D02*
X-199600D01*
G01X-199000D02*
X-194900D01*
G01X-194300D02*
X-190200D01*
G01X-302700Y241666D02*
Y236666D01*
G01X-304272Y241666D02*
X-301128D01*
G01X-298000Y236666D02*
X-298547Y236749D01*
X-299025Y237083D01*
X-299435Y237583D01*
X-299708Y238166D01*
X-299845Y238833D01*
Y239499D01*
X-299708Y240166D01*
X-299435Y240749D01*
X-299025Y241249D01*
X-298547Y241583D01*
X-298000Y241666D01*
X-297453Y241583D01*
X-296975Y241249D01*
X-296565Y240749D01*
X-296292Y240166D01*
X-296155Y239499D01*
Y238833D01*
X-296292Y238166D01*
X-296565Y237583D01*
X-296975Y237083D01*
X-297453Y236749D01*
X-298000Y236666D01*
G01X-293300Y241666D02*
Y236666D01*
G01X-294872Y241666D02*
X-291728D01*
G01X-290308Y236666D02*
X-288600Y241666D01*
X-286892Y236666D01*
G01X-287507Y238416D02*
X-289693D01*
G01X-285267Y241666D02*
Y236666D01*
X-282533D01*
G01X-274500Y241666D02*
Y236666D01*
G01X-276072Y241666D02*
X-272928D01*
G01X-271235Y236666D02*
Y241666D01*
G01X-268365D02*
Y236666D01*
G01Y239166D02*
X-271235D01*
G01X-265920Y241666D02*
X-264280D01*
G01X-265100D02*
Y236666D01*
G01X-265920D02*
X-264280D01*
G01X-258897Y241249D02*
X-259307Y241499D01*
X-259785Y241666D01*
X-260332D01*
X-260947Y241416D01*
X-261425Y240999D01*
X-261767Y240499D01*
X-262040Y239666D01*
X-262108Y238916D01*
X-261972Y238166D01*
X-261767Y237666D01*
X-261357Y237166D01*
X-260878Y236833D01*
X-260400Y236666D01*
X-259922D01*
X-259443Y236833D01*
X-259033Y237083D01*
X-258692Y237416D01*
G01X-257203Y236666D02*
Y241666D01*
G01X-254607D02*
X-257203Y238583D01*
G01X-254197Y236666D02*
X-256042Y239999D01*
G01X-252572Y236666D02*
Y241666D01*
X-249428Y236666D01*
Y241666D01*
G01X-244933Y236666D02*
X-247667D01*
Y241666D01*
X-244933D01*
G01X-246027Y239249D02*
X-247667D01*
G01X-243035Y237333D02*
X-242488Y236916D01*
X-241873Y236666D01*
X-241327D01*
X-240780Y236916D01*
X-240370Y237333D01*
X-240165Y237916D01*
X-240302Y238499D01*
X-240643Y238999D01*
X-241258Y239333D01*
X-242078Y239499D01*
X-242557Y239833D01*
X-242762Y240416D01*
X-242625Y240999D01*
X-242283Y241416D01*
X-241805Y241666D01*
X-241327D01*
X-240848Y241499D01*
X-240438Y241083D01*
G01X-238335Y237333D02*
X-237788Y236916D01*
X-237173Y236666D01*
X-236627D01*
X-236080Y236916D01*
X-235670Y237333D01*
X-235465Y237916D01*
X-235602Y238499D01*
X-235943Y238999D01*
X-236558Y239333D01*
X-237378Y239499D01*
X-237857Y239833D01*
X-238062Y240416D01*
X-237925Y240999D01*
X-237583Y241416D01*
X-237105Y241666D01*
X-236627D01*
X-236148Y241499D01*
X-235738Y241083D01*
G01X-228798Y238749D02*
X-228320Y239333D01*
X-227910Y239666D01*
X-227363Y239833D01*
X-226885Y239666D01*
X-226543Y239333D01*
X-226270Y238833D01*
X-226202Y238249D01*
X-226270Y237749D01*
X-226543Y237249D01*
X-226953Y236833D01*
X-227432Y236666D01*
X-227978Y236833D01*
X-228457Y237333D01*
X-228730Y238083D01*
X-228798Y238916D01*
X-228662Y239999D01*
X-228457Y240583D01*
X-228115Y241166D01*
X-227637Y241583D01*
X-227158Y241666D01*
X-226680Y241499D01*
X-226338Y241083D01*
G01X-224303Y237666D02*
X-223893Y237083D01*
X-223347Y236749D01*
X-222732Y236666D01*
X-222185Y236749D01*
X-221638Y237166D01*
X-221297Y237666D01*
X-221228Y238166D01*
X-221365Y238749D01*
X-221843Y239166D01*
X-222322Y239333D01*
X-222937D01*
G01X-222322D02*
X-221912Y239583D01*
X-221570Y239999D01*
X-221433Y240499D01*
X-221570Y240999D01*
X-221912Y241416D01*
X-222527Y241666D01*
X-223142Y241583D01*
X-223757Y241249D01*
G01X-215177Y236666D02*
Y241666D01*
X-213400Y237499D01*
X-211623Y241666D01*
Y236666D01*
G01X-209520Y241666D02*
X-207880D01*
G01X-208700D02*
Y236666D01*
G01X-209520D02*
X-207880D01*
G01X-205367Y241666D02*
Y236666D01*
X-202633D01*
G01X-283350Y363590D02*
Y368006D01*
X-223350D01*
Y363590D01*
X-283350D01*
G01X-255850Y473648D02*
X-260850D01*
X-259850Y472828D01*
G01X-255850D02*
Y474468D01*
G01X-257517Y477460D02*
Y479236D01*
G01X-260017Y481750D02*
X-260517Y482160D01*
X-260767Y482638D01*
X-260850Y483185D01*
X-260683Y483868D01*
X-260267Y484346D01*
X-259767Y484483D01*
X-259267Y484415D01*
X-258850Y484141D01*
X-258017Y482775D01*
X-257433Y482160D01*
X-256600Y481750D01*
X-255850Y481613D01*
Y484483D01*
G01X-208703Y258165D02*
X-205697Y261832D01*
G01X-207200Y262499D02*
Y257499D01*
G01X-205697Y258165D02*
X-208703Y261832D01*
G01X-209250Y259999D02*
X-205150D01*
G01X-194535Y258999D02*
X-193988Y258582D01*
X-193373Y258332D01*
X-192827D01*
X-192280Y258582D01*
X-191870Y258999D01*
X-191665Y259582D01*
X-191802Y260165D01*
X-192143Y260665D01*
X-192758Y260999D01*
X-193578Y261165D01*
X-194057Y261499D01*
X-194262Y262082D01*
X-194125Y262665D01*
X-193783Y263082D01*
X-193305Y263332D01*
X-192827D01*
X-192348Y263165D01*
X-191938Y262749D01*
G01X-189903Y263332D02*
Y259749D01*
X-189630Y258999D01*
X-189083Y258499D01*
X-188400Y258332D01*
X-187717Y258499D01*
X-187170Y258999D01*
X-186897Y259749D01*
Y263332D01*
G01X-185067Y258332D02*
Y263332D01*
X-183358D01*
X-182812Y263082D01*
X-182470Y262749D01*
X-182333Y262082D01*
X-182470Y261415D01*
X-182880Y260999D01*
X-183358Y260749D01*
X-185067D01*
G01X-183358D02*
X-182333Y258332D01*
G01X-180298D02*
Y263332D01*
X-177702D01*
G01X-178658Y260915D02*
X-180298D01*
G01X-176008Y258332D02*
X-174300Y263332D01*
X-172592Y258332D01*
G01X-173207Y260082D02*
X-175393D01*
G01X-168097Y262915D02*
X-168507Y263165D01*
X-168985Y263332D01*
X-169532D01*
X-170147Y263082D01*
X-170625Y262665D01*
X-170967Y262165D01*
X-171240Y261332D01*
X-171308Y260582D01*
X-171172Y259832D01*
X-170967Y259332D01*
X-170557Y258832D01*
X-170078Y258499D01*
X-169600Y258332D01*
X-169122D01*
X-168643Y258499D01*
X-168233Y258749D01*
X-167892Y259082D01*
G01X-163533Y258332D02*
X-166267D01*
Y263332D01*
X-163533D01*
G01X-164627Y260915D02*
X-166267D01*
G01X-156388Y259999D02*
X-154612D01*
G01X-147808Y258332D02*
X-146100Y263332D01*
X-144392Y258332D01*
G01X-145007Y260082D02*
X-147193D01*
G01X-142220Y263332D02*
X-140580D01*
G01X-141400D02*
Y258332D01*
G01X-142220D02*
X-140580D01*
G01X-138067D02*
Y263332D01*
X-136358D01*
X-135812Y263082D01*
X-135470Y262749D01*
X-135333Y262082D01*
X-135470Y261415D01*
X-135880Y260999D01*
X-136358Y260749D01*
X-138067D01*
G01X-136358D02*
X-135333Y258332D01*
G01X-127300Y263332D02*
X-127847Y263165D01*
X-128257Y262749D01*
X-128530Y262249D01*
X-128735Y261582D01*
X-128803Y260832D01*
X-128735Y260082D01*
X-128530Y259415D01*
X-128257Y258915D01*
X-127847Y258499D01*
X-127300Y258332D01*
X-126753Y258499D01*
X-126343Y258915D01*
X-126070Y259415D01*
X-125865Y260082D01*
X-125797Y260832D01*
X-125865Y261582D01*
X-126070Y262249D01*
X-126343Y262749D01*
X-126753Y263165D01*
X-127300Y263332D01*
G01X-119677Y258332D02*
Y263332D01*
X-117900Y259165D01*
X-116123Y263332D01*
Y258332D01*
G01X-114020Y263332D02*
X-112380D01*
G01X-113200D02*
Y258332D01*
G01X-114020D02*
X-112380D01*
G01X-109867Y263332D02*
Y258332D01*
X-107133D01*
G01X-217967Y319294D02*
Y314294D01*
X-215233D01*
G01X-213198Y318461D02*
X-212788Y318961D01*
X-212310Y319211D01*
X-211763Y319294D01*
X-211080Y319127D01*
X-210602Y318711D01*
X-210465Y318211D01*
X-210533Y317711D01*
X-210807Y317294D01*
X-212173Y316461D01*
X-212788Y315877D01*
X-213198Y315044D01*
X-213335Y314294D01*
X-210465D01*
G01X-207200Y314127D02*
X-207337Y314211D01*
Y314377D01*
X-207200Y314461D01*
X-207063Y314377D01*
Y314211D01*
X-207200Y314127D01*
G01Y316377D02*
X-207337Y316461D01*
Y316627D01*
X-207200Y316711D01*
X-207063Y316627D01*
Y316461D01*
X-207200Y316377D01*
G01X-197253Y316961D02*
X-196980Y317211D01*
X-196775Y317627D01*
X-196638Y318211D01*
X-196775Y318711D01*
X-197048Y319044D01*
X-197527Y319294D01*
X-199372D01*
Y314294D01*
X-197117D01*
X-196638Y314627D01*
X-196365Y315127D01*
X-196228Y315711D01*
X-196365Y316294D01*
X-196775Y316794D01*
X-197253Y316961D01*
X-199372D01*
G01X-193100Y314294D02*
X-193647Y314377D01*
X-194125Y314711D01*
X-194535Y315211D01*
X-194808Y315794D01*
X-194945Y316461D01*
Y317127D01*
X-194808Y317794D01*
X-194535Y318377D01*
X-194125Y318877D01*
X-193647Y319211D01*
X-193100Y319294D01*
X-192553Y319211D01*
X-192075Y318877D01*
X-191665Y318377D01*
X-191392Y317794D01*
X-191255Y317127D01*
Y316461D01*
X-191392Y315794D01*
X-191665Y315211D01*
X-192075Y314711D01*
X-192553Y314377D01*
X-193100Y314294D01*
G01X-188400Y319294D02*
Y314294D01*
G01X-189972Y319294D02*
X-186828D01*
G01X-183700D02*
Y314294D01*
G01X-185272Y319294D02*
X-182128D01*
G01X-179000Y314294D02*
X-179547Y314377D01*
X-180025Y314711D01*
X-180435Y315211D01*
X-180708Y315794D01*
X-180845Y316461D01*
Y317127D01*
X-180708Y317794D01*
X-180435Y318377D01*
X-180025Y318877D01*
X-179547Y319211D01*
X-179000Y319294D01*
X-178453Y319211D01*
X-177975Y318877D01*
X-177565Y318377D01*
X-177292Y317794D01*
X-177155Y317127D01*
Y316461D01*
X-177292Y315794D01*
X-177565Y315211D01*
X-177975Y314711D01*
X-178453Y314377D01*
X-179000Y314294D01*
G01X-176077D02*
Y319294D01*
X-174300Y315127D01*
X-172523Y319294D01*
Y314294D01*
G01X-163397Y318877D02*
X-163807Y319127D01*
X-164285Y319294D01*
X-164832D01*
X-165447Y319044D01*
X-165925Y318627D01*
X-166267Y318127D01*
X-166540Y317294D01*
X-166608Y316544D01*
X-166472Y315794D01*
X-166267Y315294D01*
X-165857Y314794D01*
X-165378Y314461D01*
X-164900Y314294D01*
X-164422D01*
X-163943Y314461D01*
X-163533Y314711D01*
X-163192Y315044D01*
G01X-160200Y314294D02*
X-160747Y314377D01*
X-161225Y314711D01*
X-161635Y315211D01*
X-161908Y315794D01*
X-162045Y316461D01*
Y317127D01*
X-161908Y317794D01*
X-161635Y318377D01*
X-161225Y318877D01*
X-160747Y319211D01*
X-160200Y319294D01*
X-159653Y319211D01*
X-159175Y318877D01*
X-158765Y318377D01*
X-158492Y317794D01*
X-158355Y317127D01*
Y316461D01*
X-158492Y315794D01*
X-158765Y315211D01*
X-159175Y314711D01*
X-159653Y314377D01*
X-160200Y314294D01*
G01X-157072D02*
Y319294D01*
X-153928Y314294D01*
Y319294D01*
G01X-152303Y314294D02*
Y319294D01*
X-150937D01*
X-150390Y319044D01*
X-149980Y318711D01*
X-149638Y318211D01*
X-149365Y317627D01*
X-149297Y316794D01*
X-149365Y315961D01*
X-149638Y315377D01*
X-149980Y314877D01*
X-150390Y314544D01*
X-150937Y314294D01*
X-152303D01*
G01X-147603Y319294D02*
Y315711D01*
X-147330Y314961D01*
X-146783Y314461D01*
X-146100Y314294D01*
X-145417Y314461D01*
X-144870Y314961D01*
X-144597Y315711D01*
Y319294D01*
G01X-139897Y318877D02*
X-140307Y319127D01*
X-140785Y319294D01*
X-141332D01*
X-141947Y319044D01*
X-142425Y318627D01*
X-142767Y318127D01*
X-143040Y317294D01*
X-143108Y316544D01*
X-142972Y315794D01*
X-142767Y315294D01*
X-142357Y314794D01*
X-141878Y314461D01*
X-141400Y314294D01*
X-140922D01*
X-140443Y314461D01*
X-140033Y314711D01*
X-139692Y315044D01*
G01X-136700Y319294D02*
Y314294D01*
G01X-138272Y319294D02*
X-135128D01*
G01X-132000Y314294D02*
X-132547Y314377D01*
X-133025Y314711D01*
X-133435Y315211D01*
X-133708Y315794D01*
X-133845Y316461D01*
Y317127D01*
X-133708Y317794D01*
X-133435Y318377D01*
X-133025Y318877D01*
X-132547Y319211D01*
X-132000Y319294D01*
X-131453Y319211D01*
X-130975Y318877D01*
X-130565Y318377D01*
X-130292Y317794D01*
X-130155Y317127D01*
Y316461D01*
X-130292Y315794D01*
X-130565Y315211D01*
X-130975Y314711D01*
X-131453Y314377D01*
X-132000Y314294D01*
G01X-128667D02*
Y319294D01*
X-126958D01*
X-126412Y319044D01*
X-126070Y318711D01*
X-125933Y318044D01*
X-126070Y317377D01*
X-126480Y316961D01*
X-126958Y316711D01*
X-128667D01*
G01X-126958D02*
X-125933Y314294D01*
G01X-118788Y315961D02*
X-117012D01*
G01X-106997Y318877D02*
X-107407Y319127D01*
X-107885Y319294D01*
X-108432D01*
X-109047Y319044D01*
X-109525Y318627D01*
X-109867Y318127D01*
X-110140Y317294D01*
X-110208Y316544D01*
X-110072Y315794D01*
X-109867Y315294D01*
X-109457Y314794D01*
X-108978Y314461D01*
X-108500Y314294D01*
X-108022D01*
X-107543Y314461D01*
X-107133Y314711D01*
X-106792Y315044D01*
G01X-103800Y314294D02*
X-104347Y314377D01*
X-104825Y314711D01*
X-105235Y315211D01*
X-105508Y315794D01*
X-105645Y316461D01*
Y317127D01*
X-105508Y317794D01*
X-105235Y318377D01*
X-104825Y318877D01*
X-104347Y319211D01*
X-103800Y319294D01*
X-103253Y319211D01*
X-102775Y318877D01*
X-102365Y318377D01*
X-102092Y317794D01*
X-101955Y317127D01*
Y316461D01*
X-102092Y315794D01*
X-102365Y315211D01*
X-102775Y314711D01*
X-103253Y314377D01*
X-103800Y314294D01*
G01X-100467D02*
Y319294D01*
X-98827D01*
X-98280Y319044D01*
X-97870Y318461D01*
X-97733Y317794D01*
X-97870Y317127D01*
X-98212Y316627D01*
X-98827Y316377D01*
X-100467D01*
G01X-95767Y314294D02*
Y319294D01*
X-94127D01*
X-93580Y319044D01*
X-93170Y318461D01*
X-93033Y317794D01*
X-93170Y317127D01*
X-93512Y316627D01*
X-94127Y316377D01*
X-95767D01*
G01X-88333Y314294D02*
X-91067D01*
Y319294D01*
X-88333D01*
G01X-89427Y316877D02*
X-91067D01*
G01X-86367Y314294D02*
Y319294D01*
X-84658D01*
X-84112Y319044D01*
X-83770Y318711D01*
X-83633Y318044D01*
X-83770Y317377D01*
X-84180Y316961D01*
X-84658Y316711D01*
X-86367D01*
G01X-84658D02*
X-83633Y314294D01*
G01X-77103Y315294D02*
X-76693Y314711D01*
X-76147Y314377D01*
X-75532Y314294D01*
X-74985Y314377D01*
X-74438Y314794D01*
X-74097Y315294D01*
X-74028Y315794D01*
X-74165Y316377D01*
X-74643Y316794D01*
X-75122Y316961D01*
X-75737D01*
G01X-75122D02*
X-74712Y317211D01*
X-74370Y317627D01*
X-74233Y318127D01*
X-74370Y318627D01*
X-74712Y319044D01*
X-75327Y319294D01*
X-75942Y319211D01*
X-76557Y318877D01*
G01X-70900Y319294D02*
X-71447Y319127D01*
X-71857Y318711D01*
X-72130Y318211D01*
X-72335Y317544D01*
X-72403Y316794D01*
X-72335Y316044D01*
X-72130Y315377D01*
X-71857Y314877D01*
X-71447Y314461D01*
X-70900Y314294D01*
X-70353Y314461D01*
X-69943Y314877D01*
X-69670Y315377D01*
X-69465Y316044D01*
X-69397Y316794D01*
X-69465Y317544D01*
X-69670Y318211D01*
X-69943Y318711D01*
X-70353Y319127D01*
X-70900Y319294D01*
G01X-66200Y314127D02*
X-66337Y314211D01*
Y314377D01*
X-66200Y314461D01*
X-66063Y314377D01*
Y314211D01*
X-66200Y314127D01*
G01X-61500Y314294D02*
X-61022Y314377D01*
X-60475Y314627D01*
X-60133Y315044D01*
X-59997Y315627D01*
X-60133Y316211D01*
X-60543Y316711D01*
X-61158Y316961D01*
X-61842D01*
X-62252Y317127D01*
X-62593Y317544D01*
X-62730Y318127D01*
X-62525Y318711D01*
X-62047Y319127D01*
X-61500Y319294D01*
X-60953Y319127D01*
X-60475Y318711D01*
X-60270Y318127D01*
X-60407Y317544D01*
X-60748Y317127D01*
X-61158Y316961D01*
X-61842D01*
X-62457Y316711D01*
X-62867Y316211D01*
X-63003Y315627D01*
X-62867Y315044D01*
X-62525Y314627D01*
X-61978Y314377D01*
X-61500Y314294D01*
G01X-56800D02*
Y319294D01*
X-57620Y318294D01*
G01Y314294D02*
X-55980D01*
G01X-49177D02*
Y319294D01*
X-47400Y315127D01*
X-45623Y319294D01*
Y314294D01*
G01X-43520Y319294D02*
X-41880D01*
G01X-42700D02*
Y314294D01*
G01X-43520D02*
X-41880D01*
G01X-39367Y319294D02*
Y314294D01*
X-36633D01*
G01X-208703Y361173D02*
X-205697Y364840D01*
G01X-207200Y365507D02*
Y360507D01*
G01X-205697Y361173D02*
X-208703Y364840D01*
G01X-209250Y363007D02*
X-205150D01*
G01X-194603Y361340D02*
Y366340D01*
X-193237D01*
X-192690Y366090D01*
X-192280Y365757D01*
X-191938Y365257D01*
X-191665Y364673D01*
X-191597Y363840D01*
X-191665Y363007D01*
X-191938Y362423D01*
X-192280Y361923D01*
X-192690Y361590D01*
X-193237Y361340D01*
X-194603D01*
G01X-189220Y366340D02*
X-187580D01*
G01X-188400D02*
Y361340D01*
G01X-189220D02*
X-187580D01*
G01X-182333D02*
X-185067D01*
Y366340D01*
X-182333D01*
G01X-183427Y363923D02*
X-185067D01*
G01X-180367Y366340D02*
Y361340D01*
X-177633D01*
G01X-172933D02*
X-175667D01*
Y366340D01*
X-172933D01*
G01X-174027Y363923D02*
X-175667D01*
G01X-168097Y365923D02*
X-168507Y366173D01*
X-168985Y366340D01*
X-169532D01*
X-170147Y366090D01*
X-170625Y365673D01*
X-170967Y365173D01*
X-171240Y364340D01*
X-171308Y363590D01*
X-171172Y362840D01*
X-170967Y362340D01*
X-170557Y361840D01*
X-170078Y361507D01*
X-169600Y361340D01*
X-169122D01*
X-168643Y361507D01*
X-168233Y361757D01*
X-167892Y362090D01*
G01X-164900Y366340D02*
Y361340D01*
G01X-166472Y366340D02*
X-163328D01*
G01X-161567Y361340D02*
Y366340D01*
X-159858D01*
X-159312Y366090D01*
X-158970Y365757D01*
X-158833Y365090D01*
X-158970Y364423D01*
X-159380Y364007D01*
X-159858Y363757D01*
X-161567D01*
G01X-159858D02*
X-158833Y361340D01*
G01X-156320Y366340D02*
X-154680D01*
G01X-155500D02*
Y361340D01*
G01X-156320D02*
X-154680D01*
G01X-149297Y365923D02*
X-149707Y366173D01*
X-150185Y366340D01*
X-150732D01*
X-151347Y366090D01*
X-151825Y365673D01*
X-152167Y365173D01*
X-152440Y364340D01*
X-152508Y363590D01*
X-152372Y362840D01*
X-152167Y362340D01*
X-151757Y361840D01*
X-151278Y361507D01*
X-150800Y361340D01*
X-150322D01*
X-149843Y361507D01*
X-149433Y361757D01*
X-149092Y362090D01*
G01X-142288Y363007D02*
X-140512D01*
G01X-133298Y361340D02*
Y366340D01*
X-130702D01*
G01X-131658Y363923D02*
X-133298D01*
G01X-128667Y361340D02*
Y366340D01*
X-126958D01*
X-126412Y366090D01*
X-126070Y365757D01*
X-125933Y365090D01*
X-126070Y364423D01*
X-126480Y364007D01*
X-126958Y363757D01*
X-128667D01*
G01X-126958D02*
X-125933Y361340D01*
G01X-123488Y363007D02*
X-121712D01*
G01X-117080Y361340D02*
Y366340D01*
X-119608Y362757D01*
X-116192D01*
G01X-108500Y361340D02*
Y366340D01*
X-109320Y365340D01*
G01Y361340D02*
X-107680D01*
G01X-103800Y361173D02*
X-103937Y361257D01*
Y361423D01*
X-103800Y361507D01*
X-103663Y361423D01*
Y361257D01*
X-103800Y361173D01*
G01X-100603Y362340D02*
X-100193Y361757D01*
X-99647Y361423D01*
X-99032Y361340D01*
X-98485Y361423D01*
X-97938Y361840D01*
X-97597Y362340D01*
X-97528Y362840D01*
X-97665Y363423D01*
X-98143Y363840D01*
X-98622Y364007D01*
X-99237D01*
G01X-98622D02*
X-98212Y364257D01*
X-97870Y364673D01*
X-97733Y365173D01*
X-97870Y365673D01*
X-98212Y366090D01*
X-98827Y366340D01*
X-99442Y366257D01*
X-100057Y365923D01*
G01X-94400Y361340D02*
X-93922Y361423D01*
X-93375Y361673D01*
X-93033Y362090D01*
X-92897Y362673D01*
X-93033Y363257D01*
X-93443Y363757D01*
X-94058Y364007D01*
X-94742D01*
X-95152Y364173D01*
X-95493Y364590D01*
X-95630Y365173D01*
X-95425Y365757D01*
X-94947Y366173D01*
X-94400Y366340D01*
X-93853Y366173D01*
X-93375Y365757D01*
X-93170Y365173D01*
X-93307Y364590D01*
X-93648Y364173D01*
X-94058Y364007D01*
X-94742D01*
X-95357Y363757D01*
X-95767Y363257D01*
X-95903Y362673D01*
X-95767Y362090D01*
X-95425Y361673D01*
X-94878Y361423D01*
X-94400Y361340D01*
G01X-86777D02*
Y366340D01*
X-85000Y362173D01*
X-83223Y366340D01*
Y361340D01*
G01X-81120Y366340D02*
X-79480D01*
G01X-80300D02*
Y361340D01*
G01X-81120D02*
X-79480D01*
G01X-76967Y366340D02*
Y361340D01*
X-74233D01*
G01X-217967Y422302D02*
Y417302D01*
X-215233D01*
G01X-211900D02*
Y422302D01*
X-212720Y421302D01*
G01Y417302D02*
X-211080D01*
G01X-207200Y417135D02*
X-207337Y417219D01*
Y417385D01*
X-207200Y417469D01*
X-207063Y417385D01*
Y417219D01*
X-207200Y417135D01*
G01Y419385D02*
X-207337Y419469D01*
Y419635D01*
X-207200Y419719D01*
X-207063Y419635D01*
Y419469D01*
X-207200Y419385D01*
G01X-197800Y422302D02*
Y417302D01*
G01X-199372Y422302D02*
X-196228D01*
G01X-193100Y417302D02*
X-193647Y417385D01*
X-194125Y417719D01*
X-194535Y418219D01*
X-194808Y418802D01*
X-194945Y419469D01*
Y420135D01*
X-194808Y420802D01*
X-194535Y421385D01*
X-194125Y421885D01*
X-193647Y422219D01*
X-193100Y422302D01*
X-192553Y422219D01*
X-192075Y421885D01*
X-191665Y421385D01*
X-191392Y420802D01*
X-191255Y420135D01*
Y419469D01*
X-191392Y418802D01*
X-191665Y418219D01*
X-192075Y417719D01*
X-192553Y417385D01*
X-193100Y417302D01*
G01X-189767D02*
Y422302D01*
X-188127D01*
X-187580Y422052D01*
X-187170Y421469D01*
X-187033Y420802D01*
X-187170Y420135D01*
X-187512Y419635D01*
X-188127Y419385D01*
X-189767D01*
G01X-177497Y421885D02*
X-177907Y422135D01*
X-178385Y422302D01*
X-178932D01*
X-179547Y422052D01*
X-180025Y421635D01*
X-180367Y421135D01*
X-180640Y420302D01*
X-180708Y419552D01*
X-180572Y418802D01*
X-180367Y418302D01*
X-179957Y417802D01*
X-179478Y417469D01*
X-179000Y417302D01*
X-178522D01*
X-178043Y417469D01*
X-177633Y417719D01*
X-177292Y418052D01*
G01X-174300Y417302D02*
X-174847Y417385D01*
X-175325Y417719D01*
X-175735Y418219D01*
X-176008Y418802D01*
X-176145Y419469D01*
Y420135D01*
X-176008Y420802D01*
X-175735Y421385D01*
X-175325Y421885D01*
X-174847Y422219D01*
X-174300Y422302D01*
X-173753Y422219D01*
X-173275Y421885D01*
X-172865Y421385D01*
X-172592Y420802D01*
X-172455Y420135D01*
Y419469D01*
X-172592Y418802D01*
X-172865Y418219D01*
X-173275Y417719D01*
X-173753Y417385D01*
X-174300Y417302D01*
G01X-171172D02*
Y422302D01*
X-168028Y417302D01*
Y422302D01*
G01X-166403Y417302D02*
Y422302D01*
X-165037D01*
X-164490Y422052D01*
X-164080Y421719D01*
X-163738Y421219D01*
X-163465Y420635D01*
X-163397Y419802D01*
X-163465Y418969D01*
X-163738Y418385D01*
X-164080Y417885D01*
X-164490Y417552D01*
X-165037Y417302D01*
X-166403D01*
G01X-161703Y422302D02*
Y418719D01*
X-161430Y417969D01*
X-160883Y417469D01*
X-160200Y417302D01*
X-159517Y417469D01*
X-158970Y417969D01*
X-158697Y418719D01*
Y422302D01*
G01X-153997Y421885D02*
X-154407Y422135D01*
X-154885Y422302D01*
X-155432D01*
X-156047Y422052D01*
X-156525Y421635D01*
X-156867Y421135D01*
X-157140Y420302D01*
X-157208Y419552D01*
X-157072Y418802D01*
X-156867Y418302D01*
X-156457Y417802D01*
X-155978Y417469D01*
X-155500Y417302D01*
X-155022D01*
X-154543Y417469D01*
X-154133Y417719D01*
X-153792Y418052D01*
G01X-150800Y422302D02*
Y417302D01*
G01X-152372Y422302D02*
X-149228D01*
G01X-146100Y417302D02*
X-146647Y417385D01*
X-147125Y417719D01*
X-147535Y418219D01*
X-147808Y418802D01*
X-147945Y419469D01*
Y420135D01*
X-147808Y420802D01*
X-147535Y421385D01*
X-147125Y421885D01*
X-146647Y422219D01*
X-146100Y422302D01*
X-145553Y422219D01*
X-145075Y421885D01*
X-144665Y421385D01*
X-144392Y420802D01*
X-144255Y420135D01*
Y419469D01*
X-144392Y418802D01*
X-144665Y418219D01*
X-145075Y417719D01*
X-145553Y417385D01*
X-146100Y417302D01*
G01X-142767D02*
Y422302D01*
X-141058D01*
X-140512Y422052D01*
X-140170Y421719D01*
X-140033Y421052D01*
X-140170Y420385D01*
X-140580Y419969D01*
X-141058Y419719D01*
X-142767D01*
G01X-141058D02*
X-140033Y417302D01*
G01X-132888Y418969D02*
X-131112D01*
G01X-121097Y421885D02*
X-121507Y422135D01*
X-121985Y422302D01*
X-122532D01*
X-123147Y422052D01*
X-123625Y421635D01*
X-123967Y421135D01*
X-124240Y420302D01*
X-124308Y419552D01*
X-124172Y418802D01*
X-123967Y418302D01*
X-123557Y417802D01*
X-123078Y417469D01*
X-122600Y417302D01*
X-122122D01*
X-121643Y417469D01*
X-121233Y417719D01*
X-120892Y418052D01*
G01X-117900Y417302D02*
X-118447Y417385D01*
X-118925Y417719D01*
X-119335Y418219D01*
X-119608Y418802D01*
X-119745Y419469D01*
Y420135D01*
X-119608Y420802D01*
X-119335Y421385D01*
X-118925Y421885D01*
X-118447Y422219D01*
X-117900Y422302D01*
X-117353Y422219D01*
X-116875Y421885D01*
X-116465Y421385D01*
X-116192Y420802D01*
X-116055Y420135D01*
Y419469D01*
X-116192Y418802D01*
X-116465Y418219D01*
X-116875Y417719D01*
X-117353Y417385D01*
X-117900Y417302D01*
G01X-114567D02*
Y422302D01*
X-112927D01*
X-112380Y422052D01*
X-111970Y421469D01*
X-111833Y420802D01*
X-111970Y420135D01*
X-112312Y419635D01*
X-112927Y419385D01*
X-114567D01*
G01X-109867Y417302D02*
Y422302D01*
X-108227D01*
X-107680Y422052D01*
X-107270Y421469D01*
X-107133Y420802D01*
X-107270Y420135D01*
X-107612Y419635D01*
X-108227Y419385D01*
X-109867D01*
G01X-102433Y417302D02*
X-105167D01*
Y422302D01*
X-102433D01*
G01X-103527Y419885D02*
X-105167D01*
G01X-100467Y417302D02*
Y422302D01*
X-98758D01*
X-98212Y422052D01*
X-97870Y421719D01*
X-97733Y421052D01*
X-97870Y420385D01*
X-98280Y419969D01*
X-98758Y419719D01*
X-100467D01*
G01X-98758D02*
X-97733Y417302D01*
G01X-91203Y418302D02*
X-90793Y417719D01*
X-90247Y417385D01*
X-89632Y417302D01*
X-89085Y417385D01*
X-88538Y417802D01*
X-88197Y418302D01*
X-88128Y418802D01*
X-88265Y419385D01*
X-88743Y419802D01*
X-89222Y419969D01*
X-89837D01*
G01X-89222D02*
X-88812Y420219D01*
X-88470Y420635D01*
X-88333Y421135D01*
X-88470Y421635D01*
X-88812Y422052D01*
X-89427Y422302D01*
X-90042Y422219D01*
X-90657Y421885D01*
G01X-85000Y422302D02*
X-85547Y422135D01*
X-85957Y421719D01*
X-86230Y421219D01*
X-86435Y420552D01*
X-86503Y419802D01*
X-86435Y419052D01*
X-86230Y418385D01*
X-85957Y417885D01*
X-85547Y417469D01*
X-85000Y417302D01*
X-84453Y417469D01*
X-84043Y417885D01*
X-83770Y418385D01*
X-83565Y419052D01*
X-83497Y419802D01*
X-83565Y420552D01*
X-83770Y421219D01*
X-84043Y421719D01*
X-84453Y422135D01*
X-85000Y422302D01*
G01X-80300Y417135D02*
X-80437Y417219D01*
Y417385D01*
X-80300Y417469D01*
X-80163Y417385D01*
Y417219D01*
X-80300Y417135D01*
G01X-75600Y417302D02*
X-75122Y417385D01*
X-74575Y417635D01*
X-74233Y418052D01*
X-74097Y418635D01*
X-74233Y419219D01*
X-74643Y419719D01*
X-75258Y419969D01*
X-75942D01*
X-76352Y420135D01*
X-76693Y420552D01*
X-76830Y421135D01*
X-76625Y421719D01*
X-76147Y422135D01*
X-75600Y422302D01*
X-75053Y422135D01*
X-74575Y421719D01*
X-74370Y421135D01*
X-74507Y420552D01*
X-74848Y420135D01*
X-75258Y419969D01*
X-75942D01*
X-76557Y419719D01*
X-76967Y419219D01*
X-77103Y418635D01*
X-76967Y418052D01*
X-76625Y417635D01*
X-76078Y417385D01*
X-75600Y417302D01*
G01X-70900D02*
Y422302D01*
X-71720Y421302D01*
G01Y417302D02*
X-70080D01*
G01X-63277D02*
Y422302D01*
X-61500Y418135D01*
X-59723Y422302D01*
Y417302D01*
G01X-57620Y422302D02*
X-55980D01*
G01X-56800D02*
Y417302D01*
G01X-57620D02*
X-55980D01*
G01X-53467Y422302D02*
Y417302D01*
X-50733D01*
G01X-208703Y468097D02*
X-205697Y471764D01*
G01X-207200Y472431D02*
Y467431D01*
G01X-205697Y468097D02*
X-208703Y471764D01*
G01X-209250Y469931D02*
X-205150D01*
G01X-194535Y468931D02*
X-193988Y468514D01*
X-193373Y468264D01*
X-192827D01*
X-192280Y468514D01*
X-191870Y468931D01*
X-191665Y469514D01*
X-191802Y470097D01*
X-192143Y470597D01*
X-192758Y470931D01*
X-193578Y471097D01*
X-194057Y471431D01*
X-194262Y472014D01*
X-194125Y472597D01*
X-193783Y473014D01*
X-193305Y473264D01*
X-192827D01*
X-192348Y473097D01*
X-191938Y472681D01*
G01X-189903Y473264D02*
Y469681D01*
X-189630Y468931D01*
X-189083Y468431D01*
X-188400Y468264D01*
X-187717Y468431D01*
X-187170Y468931D01*
X-186897Y469681D01*
Y473264D01*
G01X-185067Y468264D02*
Y473264D01*
X-183358D01*
X-182812Y473014D01*
X-182470Y472681D01*
X-182333Y472014D01*
X-182470Y471347D01*
X-182880Y470931D01*
X-183358Y470681D01*
X-185067D01*
G01X-183358D02*
X-182333Y468264D01*
G01X-180298D02*
Y473264D01*
X-177702D01*
G01X-178658Y470847D02*
X-180298D01*
G01X-176008Y468264D02*
X-174300Y473264D01*
X-172592Y468264D01*
G01X-173207Y470014D02*
X-175393D01*
G01X-168097Y472847D02*
X-168507Y473097D01*
X-168985Y473264D01*
X-169532D01*
X-170147Y473014D01*
X-170625Y472597D01*
X-170967Y472097D01*
X-171240Y471264D01*
X-171308Y470514D01*
X-171172Y469764D01*
X-170967Y469264D01*
X-170557Y468764D01*
X-170078Y468431D01*
X-169600Y468264D01*
X-169122D01*
X-168643Y468431D01*
X-168233Y468681D01*
X-167892Y469014D01*
G01X-163533Y468264D02*
X-166267D01*
Y473264D01*
X-163533D01*
G01X-164627Y470847D02*
X-166267D01*
G01X-156388Y469931D02*
X-154612D01*
G01X-147808Y468264D02*
X-146100Y473264D01*
X-144392Y468264D01*
G01X-145007Y470014D02*
X-147193D01*
G01X-142220Y473264D02*
X-140580D01*
G01X-141400D02*
Y468264D01*
G01X-142220D02*
X-140580D01*
G01X-138067D02*
Y473264D01*
X-136358D01*
X-135812Y473014D01*
X-135470Y472681D01*
X-135333Y472014D01*
X-135470Y471347D01*
X-135880Y470931D01*
X-136358Y470681D01*
X-138067D01*
G01X-136358D02*
X-135333Y468264D01*
G01X-127300Y473264D02*
X-127847Y473097D01*
X-128257Y472681D01*
X-128530Y472181D01*
X-128735Y471514D01*
X-128803Y470764D01*
X-128735Y470014D01*
X-128530Y469347D01*
X-128257Y468847D01*
X-127847Y468431D01*
X-127300Y468264D01*
X-126753Y468431D01*
X-126343Y468847D01*
X-126070Y469347D01*
X-125865Y470014D01*
X-125797Y470764D01*
X-125865Y471514D01*
X-126070Y472181D01*
X-126343Y472681D01*
X-126753Y473097D01*
X-127300Y473264D01*
G01X-119677Y468264D02*
Y473264D01*
X-117900Y469097D01*
X-116123Y473264D01*
Y468264D01*
G01X-114020Y473264D02*
X-112380D01*
G01X-113200D02*
Y468264D01*
G01X-114020D02*
X-112380D01*
G01X-109867Y473264D02*
Y468264D01*
X-107133D01*
G01X0Y0D02*
Y551181D01*
X354331D01*
Y0D01*
X0D01*
G01Y561181D02*
Y583000D01*
G01X153875Y573000D02*
X0D01*
G01X15000Y575500D02*
X0Y573000D01*
X15000Y570500D01*
Y575500D01*
G01X-500Y590500D02*
Y840500D01*
X483100D01*
Y590500D01*
X-500D01*
G01Y615500D02*
X483100D01*
G01X-500Y640500D02*
X483100D01*
G01X-500Y665500D02*
X483100D01*
G01X-500Y690500D02*
X483100D01*
G01X-500Y715500D02*
X483100D01*
G01X10505Y771750D02*
Y784250D01*
X16395D01*
G01X14225Y778208D02*
X10505D01*
G01X23990Y784250D02*
X27710D01*
G01X25850D02*
Y771750D01*
G01X23990D02*
X27710D01*
G01X39180Y778000D02*
X42280D01*
Y774250D01*
X41350Y773000D01*
X40265Y772167D01*
X38715Y771750D01*
X37165Y772167D01*
X36080Y773000D01*
X35150Y774250D01*
X34530Y775708D01*
X34220Y777375D01*
Y778833D01*
X34530Y780083D01*
X35150Y781542D01*
X36080Y782792D01*
X37010Y783625D01*
X38250Y784250D01*
X39335D01*
X40575Y783833D01*
X41505Y783000D01*
G01X47240Y784250D02*
Y775292D01*
X47860Y773416D01*
X49100Y772167D01*
X50650Y771750D01*
X52200Y772167D01*
X53440Y773416D01*
X54060Y775292D01*
Y784250D01*
G01X59950Y771750D02*
Y784250D01*
X63825D01*
X65065Y783625D01*
X65840Y782792D01*
X66150Y781125D01*
X65840Y779458D01*
X64910Y778417D01*
X63825Y777792D01*
X59950D01*
G01X63825D02*
X66150Y771750D01*
G01X78550D02*
X72350D01*
Y784250D01*
X78550D01*
G01X76070Y778208D02*
X72350D01*
G01X-500Y765500D02*
X483100D01*
G01X-500Y740500D02*
X483100D01*
G01X-500Y790500D02*
X483100D01*
G01X-500Y815500D02*
X483100D01*
G01X82890Y821750D02*
Y834250D01*
X85990D01*
X87230Y833625D01*
X88160Y832792D01*
X88935Y831542D01*
X89555Y830083D01*
X89710Y828000D01*
X89555Y825917D01*
X88935Y824458D01*
X88160Y823208D01*
X87230Y822375D01*
X85990Y821750D01*
X82890D01*
G01X95600D02*
Y834250D01*
X99475D01*
X100715Y833625D01*
X101490Y832792D01*
X101800Y831125D01*
X101490Y829458D01*
X100560Y828417D01*
X99475Y827792D01*
X95600D01*
G01X99475D02*
X101800Y821750D01*
G01X109240Y834250D02*
X112960D01*
G01X111100D02*
Y821750D01*
G01X109240D02*
X112960D01*
G01X120400Y834250D02*
Y821750D01*
X126600D01*
G01X132800Y834250D02*
Y821750D01*
X139000D01*
G01X164110Y833208D02*
X163180Y833833D01*
X162095Y834250D01*
X160855D01*
X159460Y833625D01*
X158375Y832583D01*
X157600Y831333D01*
X156980Y829250D01*
X156825Y827375D01*
X157135Y825500D01*
X157600Y824250D01*
X158530Y823000D01*
X159615Y822167D01*
X160700Y821750D01*
X161785D01*
X162870Y822167D01*
X163800Y822791D01*
X164575Y823625D01*
G01X169845Y821750D02*
Y834250D01*
G01X176355D02*
Y821750D01*
G01Y828000D02*
X169845D01*
G01X181625Y821750D02*
X185500Y834250D01*
X189375Y821750D01*
G01X187980Y826125D02*
X183020D01*
G01X194800Y821750D02*
Y834250D01*
X198675D01*
X199915Y833625D01*
X200690Y832792D01*
X201000Y831125D01*
X200690Y829458D01*
X199760Y828417D01*
X198675Y827792D01*
X194800D01*
G01X198675D02*
X201000Y821750D01*
G01X210300Y834250D02*
Y821750D01*
G01X206735Y834250D02*
X213865D01*
G01X222700Y821333D02*
X222390Y821542D01*
Y821958D01*
X222700Y822167D01*
X223010Y821958D01*
Y821542D01*
X222700Y821333D01*
G01Y826958D02*
X222390Y827167D01*
Y827583D01*
X222700Y827792D01*
X223010Y827583D01*
Y827167D01*
X222700Y826958D01*
G01X247500Y834250D02*
Y821750D01*
G01X243935Y834250D02*
X251065D01*
G01X259900Y821750D02*
X258660Y821958D01*
X257575Y822791D01*
X256645Y824042D01*
X256025Y825500D01*
X255715Y827167D01*
Y828833D01*
X256025Y830500D01*
X256645Y831958D01*
X257575Y833208D01*
X258660Y834042D01*
X259900Y834250D01*
X261140Y834042D01*
X262225Y833208D01*
X263155Y831958D01*
X263775Y830500D01*
X264085Y828833D01*
Y827167D01*
X263775Y825500D01*
X263155Y824042D01*
X262225Y822791D01*
X261140Y821958D01*
X259900Y821750D01*
G01X269200D02*
Y834250D01*
X272920D01*
X274160Y833625D01*
X275090Y832167D01*
X275400Y830500D01*
X275090Y828833D01*
X274315Y827583D01*
X272920Y826958D01*
X269200D01*
G01X297100Y834250D02*
Y821750D01*
G01X294930Y830083D02*
X299270D01*
G01X309500Y821750D02*
X308570Y821958D01*
X307640Y822791D01*
X307020Y824250D01*
X306710Y825917D01*
X307020Y827583D01*
X307640Y829042D01*
X308570Y829875D01*
X309500Y830083D01*
X310430Y829875D01*
X311360Y829042D01*
X311980Y827583D01*
X312135Y825917D01*
X311980Y824250D01*
X311360Y822791D01*
X310430Y821958D01*
X309500Y821750D01*
G01X335540Y828417D02*
X336160Y829042D01*
X336625Y830083D01*
X336935Y831542D01*
X336625Y832792D01*
X336005Y833625D01*
X334920Y834250D01*
X330735D01*
Y821750D01*
X335850D01*
X336935Y822583D01*
X337555Y823833D01*
X337865Y825292D01*
X337555Y826750D01*
X336625Y828000D01*
X335540Y828417D01*
X330735D01*
G01X346700Y821750D02*
X345460Y821958D01*
X344375Y822791D01*
X343445Y824042D01*
X342825Y825500D01*
X342515Y827167D01*
Y828833D01*
X342825Y830500D01*
X343445Y831958D01*
X344375Y833208D01*
X345460Y834042D01*
X346700Y834250D01*
X347940Y834042D01*
X349025Y833208D01*
X349955Y831958D01*
X350575Y830500D01*
X350885Y828833D01*
Y827167D01*
X350575Y825500D01*
X349955Y824042D01*
X349025Y822791D01*
X347940Y821958D01*
X346700Y821750D01*
G01X359100Y834250D02*
Y821750D01*
G01X355535Y834250D02*
X362665D01*
G01X371500D02*
Y821750D01*
G01X367935Y834250D02*
X375065D01*
G01X383900Y821750D02*
X382660Y821958D01*
X381575Y822791D01*
X380645Y824042D01*
X380025Y825500D01*
X379715Y827167D01*
Y828833D01*
X380025Y830500D01*
X380645Y831958D01*
X381575Y833208D01*
X382660Y834042D01*
X383900Y834250D01*
X385140Y834042D01*
X386225Y833208D01*
X387155Y831958D01*
X387775Y830500D01*
X388085Y828833D01*
Y827167D01*
X387775Y825500D01*
X387155Y824042D01*
X386225Y822791D01*
X385140Y821958D01*
X383900Y821750D01*
G01X392270D02*
Y834250D01*
X396300Y823833D01*
X400330Y834250D01*
Y821750D01*
G01X89400Y790500D02*
Y590500D01*
G01X113425Y796750D02*
X117300Y809250D01*
X121175Y796750D01*
G01X119780Y801125D02*
X114820D01*
G01X126600Y809250D02*
Y796750D01*
X132800D01*
G01X139000Y809250D02*
Y796750D01*
X145200D01*
G01X163490Y809250D02*
Y800292D01*
X164110Y798416D01*
X165350Y797167D01*
X166900Y796750D01*
X168450Y797167D01*
X169690Y798416D01*
X170310Y800292D01*
Y809250D01*
G01X175735Y796750D02*
Y809250D01*
X182865Y796750D01*
Y809250D01*
G01X189840D02*
X193560D01*
G01X191700D02*
Y796750D01*
G01X189840D02*
X193560D01*
G01X204100Y809250D02*
Y796750D01*
G01X200535Y809250D02*
X207665D01*
G01X213245Y798416D02*
X214485Y797375D01*
X215880Y796750D01*
X217120D01*
X218360Y797375D01*
X219290Y798416D01*
X219755Y799875D01*
X219445Y801333D01*
X218670Y802583D01*
X217275Y803417D01*
X215415Y803833D01*
X214330Y804667D01*
X213865Y806125D01*
X214175Y807583D01*
X214950Y808625D01*
X216035Y809250D01*
X217120D01*
X218205Y808833D01*
X219135Y807792D01*
G01X237425Y796750D02*
X241300Y809250D01*
X245175Y796750D01*
G01X243780Y801125D02*
X238820D01*
G01X250600Y796750D02*
Y809250D01*
X254475D01*
X255715Y808625D01*
X256490Y807792D01*
X256800Y806125D01*
X256490Y804458D01*
X255560Y803417D01*
X254475Y802792D01*
X250600D01*
G01X254475D02*
X256800Y796750D01*
G01X269200D02*
X263000D01*
Y809250D01*
X269200D01*
G01X266720Y803208D02*
X263000D01*
G01X289040Y809250D02*
X292760D01*
G01X290900D02*
Y796750D01*
G01X289040D02*
X292760D01*
G01X299735D02*
Y809250D01*
X306865Y796750D01*
Y809250D01*
G01X324070Y796750D02*
Y809250D01*
X328100Y798833D01*
X332130Y809250D01*
Y796750D01*
G01X338640Y809250D02*
X342360D01*
G01X340500D02*
Y796750D01*
G01X338640D02*
X342360D01*
G01X349800Y809250D02*
Y796750D01*
X356000D01*
G01X362045Y798416D02*
X363285Y797375D01*
X364680Y796750D01*
X365920D01*
X367160Y797375D01*
X368090Y798416D01*
X368555Y799875D01*
X368245Y801333D01*
X367470Y802583D01*
X366075Y803417D01*
X364215Y803833D01*
X363130Y804667D01*
X362665Y806125D01*
X362975Y807583D01*
X363750Y808625D01*
X364835Y809250D01*
X365920D01*
X367005Y808833D01*
X367935Y807792D01*
G01X152950Y596750D02*
Y609250D01*
X151090Y606750D01*
G01Y596750D02*
X154810D01*
G01X165350D02*
Y609250D01*
X163490Y606750D01*
G01Y596750D02*
X167210D01*
G01X177750Y609250D02*
X176510Y608833D01*
X175580Y607792D01*
X174960Y606542D01*
X174495Y604875D01*
X174340Y603000D01*
X174495Y601125D01*
X174960Y599458D01*
X175580Y598208D01*
X176510Y597167D01*
X177750Y596750D01*
X178990Y597167D01*
X179920Y598208D01*
X180540Y599458D01*
X181005Y601125D01*
X181160Y603000D01*
X181005Y604875D01*
X180540Y606542D01*
X179920Y607792D01*
X178990Y608833D01*
X177750Y609250D01*
G01X190150Y596333D02*
X189840Y596542D01*
Y596958D01*
X190150Y597167D01*
X190460Y596958D01*
Y596542D01*
X190150Y596333D01*
G01X199605Y607167D02*
X200535Y608416D01*
X201620Y609042D01*
X202860Y609250D01*
X204410Y608833D01*
X205495Y607792D01*
X205805Y606542D01*
X205650Y605291D01*
X205030Y604250D01*
X201930Y602167D01*
X200535Y600708D01*
X199605Y598625D01*
X199295Y596750D01*
X205805D01*
G01X216810D02*
Y609250D01*
X211075Y600292D01*
X218825D01*
G01X164490Y569250D02*
X165420Y567791D01*
X166660Y566958D01*
X168055Y566750D01*
X169295Y566958D01*
X170535Y568000D01*
X171310Y569250D01*
X171465Y570500D01*
X171155Y571958D01*
X170070Y573000D01*
X168985Y573417D01*
X167590D01*
G01X168985D02*
X169915Y574042D01*
X170690Y575083D01*
X171000Y576333D01*
X170690Y577583D01*
X169915Y578625D01*
X168520Y579250D01*
X167125Y579042D01*
X165730Y578208D01*
G01X180300Y566333D02*
X179990Y566542D01*
Y566958D01*
X180300Y567167D01*
X180610Y566958D01*
Y566542D01*
X180300Y566333D01*
G01X189290Y568625D02*
X190220Y567583D01*
X191305Y566958D01*
X192700Y566750D01*
X194095Y567167D01*
X195180Y568000D01*
X195955Y569458D01*
X196110Y571125D01*
X195800Y572792D01*
X195025Y573833D01*
X193940Y574667D01*
X192855Y574875D01*
X191770Y574667D01*
X190375Y573833D01*
X190840Y579250D01*
X195025D01*
G01X206960Y566750D02*
Y579250D01*
X201225Y570292D01*
X208975D01*
G01X159150Y621750D02*
Y634250D01*
X157290Y631750D01*
G01Y621750D02*
X161010D01*
G01X168140Y623625D02*
X169070Y622583D01*
X170155Y621958D01*
X171550Y621750D01*
X172945Y622167D01*
X174030Y623000D01*
X174805Y624458D01*
X174960Y626125D01*
X174650Y627792D01*
X173875Y628833D01*
X172790Y629667D01*
X171705Y629875D01*
X170620Y629667D01*
X169225Y628833D01*
X169690Y634250D01*
X173875D01*
G01X183950D02*
X182710Y633833D01*
X181780Y632792D01*
X181160Y631542D01*
X180695Y629875D01*
X180540Y628000D01*
X180695Y626125D01*
X181160Y624458D01*
X181780Y623208D01*
X182710Y622167D01*
X183950Y621750D01*
X185190Y622167D01*
X186120Y623208D01*
X186740Y624458D01*
X187205Y626125D01*
X187360Y628000D01*
X187205Y629875D01*
X186740Y631542D01*
X186120Y632792D01*
X185190Y633833D01*
X183950Y634250D01*
G01X196350Y621333D02*
X196040Y621542D01*
Y621958D01*
X196350Y622167D01*
X196660Y621958D01*
Y621542D01*
X196350Y621333D01*
G01X208750Y634250D02*
X207510Y633833D01*
X206580Y632792D01*
X205960Y631542D01*
X205495Y629875D01*
X205340Y628000D01*
X205495Y626125D01*
X205960Y624458D01*
X206580Y623208D01*
X207510Y622167D01*
X208750Y621750D01*
X209990Y622167D01*
X210920Y623208D01*
X211540Y624458D01*
X212005Y626125D01*
X212160Y628000D01*
X212005Y629875D01*
X211540Y631542D01*
X210920Y632792D01*
X209990Y633833D01*
X208750Y634250D01*
G01X161940Y648625D02*
X162870Y647583D01*
X163955Y646958D01*
X165350Y646750D01*
X166745Y647167D01*
X167830Y648000D01*
X168605Y649458D01*
X168760Y651125D01*
X168450Y652792D01*
X167675Y653833D01*
X166590Y654667D01*
X165505Y654875D01*
X164420Y654667D01*
X163025Y653833D01*
X163490Y659250D01*
X167675D01*
G01X177750D02*
X176510Y658833D01*
X175580Y657792D01*
X174960Y656542D01*
X174495Y654875D01*
X174340Y653000D01*
X174495Y651125D01*
X174960Y649458D01*
X175580Y648208D01*
X176510Y647167D01*
X177750Y646750D01*
X178990Y647167D01*
X179920Y648208D01*
X180540Y649458D01*
X181005Y651125D01*
X181160Y653000D01*
X181005Y654875D01*
X180540Y656542D01*
X179920Y657792D01*
X178990Y658833D01*
X177750Y659250D01*
G01X190150Y646333D02*
X189840Y646542D01*
Y646958D01*
X190150Y647167D01*
X190460Y646958D01*
Y646542D01*
X190150Y646333D01*
G01X202550Y659250D02*
X201310Y658833D01*
X200380Y657792D01*
X199760Y656542D01*
X199295Y654875D01*
X199140Y653000D01*
X199295Y651125D01*
X199760Y649458D01*
X200380Y648208D01*
X201310Y647167D01*
X202550Y646750D01*
X203790Y647167D01*
X204720Y648208D01*
X205340Y649458D01*
X205805Y651125D01*
X205960Y653000D01*
X205805Y654875D01*
X205340Y656542D01*
X204720Y657792D01*
X203790Y658833D01*
X202550Y659250D01*
G01X167210Y671750D02*
Y684250D01*
X161475Y675292D01*
X169225D01*
G01X177750Y684250D02*
X176510Y683833D01*
X175580Y682792D01*
X174960Y681542D01*
X174495Y679875D01*
X174340Y678000D01*
X174495Y676125D01*
X174960Y674458D01*
X175580Y673208D01*
X176510Y672167D01*
X177750Y671750D01*
X178990Y672167D01*
X179920Y673208D01*
X180540Y674458D01*
X181005Y676125D01*
X181160Y678000D01*
X181005Y679875D01*
X180540Y681542D01*
X179920Y682792D01*
X178990Y683833D01*
X177750Y684250D01*
G01X190150Y671333D02*
X189840Y671542D01*
Y671958D01*
X190150Y672167D01*
X190460Y671958D01*
Y671542D01*
X190150Y671333D01*
G01X202550Y684250D02*
X201310Y683833D01*
X200380Y682792D01*
X199760Y681542D01*
X199295Y679875D01*
X199140Y678000D01*
X199295Y676125D01*
X199760Y674458D01*
X200380Y673208D01*
X201310Y672167D01*
X202550Y671750D01*
X203790Y672167D01*
X204720Y673208D01*
X205340Y674458D01*
X205805Y676125D01*
X205960Y678000D01*
X205805Y679875D01*
X205340Y681542D01*
X204720Y682792D01*
X203790Y683833D01*
X202550Y684250D01*
G01X161940Y699250D02*
X162870Y697791D01*
X164110Y696958D01*
X165505Y696750D01*
X166745Y696958D01*
X167985Y698000D01*
X168760Y699250D01*
X168915Y700500D01*
X168605Y701958D01*
X167520Y703000D01*
X166435Y703417D01*
X165040D01*
G01X166435D02*
X167365Y704042D01*
X168140Y705083D01*
X168450Y706333D01*
X168140Y707583D01*
X167365Y708625D01*
X165970Y709250D01*
X164575Y709042D01*
X163180Y708208D01*
G01X174805Y701958D02*
X175890Y703417D01*
X176820Y704250D01*
X178060Y704667D01*
X179145Y704250D01*
X179920Y703417D01*
X180540Y702167D01*
X180695Y700708D01*
X180540Y699458D01*
X179920Y698208D01*
X178990Y697167D01*
X177905Y696750D01*
X176665Y697167D01*
X175580Y698416D01*
X174960Y700292D01*
X174805Y702375D01*
X175115Y705083D01*
X175580Y706542D01*
X176355Y708000D01*
X177440Y709042D01*
X178525Y709250D01*
X179610Y708833D01*
X180385Y707792D01*
G01X190150Y696333D02*
X189840Y696542D01*
Y696958D01*
X190150Y697167D01*
X190460Y696958D01*
Y696542D01*
X190150Y696333D01*
G01X202550Y709250D02*
X201310Y708833D01*
X200380Y707792D01*
X199760Y706542D01*
X199295Y704875D01*
X199140Y703000D01*
X199295Y701125D01*
X199760Y699458D01*
X200380Y698208D01*
X201310Y697167D01*
X202550Y696750D01*
X203790Y697167D01*
X204720Y698208D01*
X205340Y699458D01*
X205805Y701125D01*
X205960Y703000D01*
X205805Y704875D01*
X205340Y706542D01*
X204720Y707792D01*
X203790Y708833D01*
X202550Y709250D01*
G01X161940Y724250D02*
X162870Y722791D01*
X164110Y721958D01*
X165505Y721750D01*
X166745Y721958D01*
X167985Y723000D01*
X168760Y724250D01*
X168915Y725500D01*
X168605Y726958D01*
X167520Y728000D01*
X166435Y728417D01*
X165040D01*
G01X166435D02*
X167365Y729042D01*
X168140Y730083D01*
X168450Y731333D01*
X168140Y732583D01*
X167365Y733625D01*
X165970Y734250D01*
X164575Y734042D01*
X163180Y733208D01*
G01X174805Y732167D02*
X175735Y733416D01*
X176820Y734042D01*
X178060Y734250D01*
X179610Y733833D01*
X180695Y732792D01*
X181005Y731542D01*
X180850Y730291D01*
X180230Y729250D01*
X177130Y727167D01*
X175735Y725708D01*
X174805Y723625D01*
X174495Y721750D01*
X181005D01*
G01X190150Y721333D02*
X189840Y721542D01*
Y721958D01*
X190150Y722167D01*
X190460Y721958D01*
Y721542D01*
X190150Y721333D01*
G01X202550Y734250D02*
X201310Y733833D01*
X200380Y732792D01*
X199760Y731542D01*
X199295Y729875D01*
X199140Y728000D01*
X199295Y726125D01*
X199760Y724458D01*
X200380Y723208D01*
X201310Y722167D01*
X202550Y721750D01*
X203790Y722167D01*
X204720Y723208D01*
X205340Y724458D01*
X205805Y726125D01*
X205960Y728000D01*
X205805Y729875D01*
X205340Y731542D01*
X204720Y732792D01*
X203790Y733833D01*
X202550Y734250D01*
G01X162095Y773416D02*
X163335Y772375D01*
X164730Y771750D01*
X165970D01*
X167210Y772375D01*
X168140Y773416D01*
X168605Y774875D01*
X168295Y776333D01*
X167520Y777583D01*
X166125Y778417D01*
X164265Y778833D01*
X163180Y779667D01*
X162715Y781125D01*
X163025Y782583D01*
X163800Y783625D01*
X164885Y784250D01*
X165970D01*
X167055Y783833D01*
X167985Y782792D01*
G01X175890Y784250D02*
X179610D01*
G01X177750D02*
Y771750D01*
G01X175890D02*
X179610D01*
G01X187205Y784250D02*
X193095D01*
X187205Y771750D01*
X193095D01*
G01X205650D02*
X199450D01*
Y784250D01*
X205650D01*
G01X203170Y778208D02*
X199450D01*
G01X159150Y746750D02*
Y759250D01*
X157290Y756750D01*
G01Y746750D02*
X161010D01*
G01X168140Y748625D02*
X169070Y747583D01*
X170155Y746958D01*
X171550Y746750D01*
X172945Y747167D01*
X174030Y748000D01*
X174805Y749458D01*
X174960Y751125D01*
X174650Y752792D01*
X173875Y753833D01*
X172790Y754667D01*
X171705Y754875D01*
X170620Y754667D01*
X169225Y753833D01*
X169690Y759250D01*
X173875D01*
G01X183950Y746333D02*
X183640Y746542D01*
Y746958D01*
X183950Y747167D01*
X184260Y746958D01*
Y746542D01*
X183950Y746333D01*
G01X196040Y746750D02*
X196350Y749458D01*
X196815Y751750D01*
X197435Y753833D01*
X198210Y756125D01*
X199450Y759250D01*
X193250D01*
G01X210610Y746750D02*
Y759250D01*
X204875Y750292D01*
X212625D01*
G01X219125Y573000D02*
X354331D01*
G01X282685Y596750D02*
Y609250D01*
X289815Y596750D01*
Y609250D01*
G01X298650Y596750D02*
X297410Y596958D01*
X296325Y597791D01*
X295395Y599042D01*
X294775Y600500D01*
X294465Y602167D01*
Y603833D01*
X294775Y605500D01*
X295395Y606958D01*
X296325Y608208D01*
X297410Y609042D01*
X298650Y609250D01*
X299890Y609042D01*
X300975Y608208D01*
X301905Y606958D01*
X302525Y605500D01*
X302835Y603833D01*
Y602167D01*
X302525Y600500D01*
X301905Y599042D01*
X300975Y597791D01*
X299890Y596958D01*
X298650Y596750D01*
G01X307485D02*
Y609250D01*
X314615Y596750D01*
Y609250D01*
G01X321435Y600917D02*
X325465D01*
G01X332750Y596750D02*
Y609250D01*
X336470D01*
X337710Y608625D01*
X338640Y607167D01*
X338950Y605500D01*
X338640Y603833D01*
X337865Y602583D01*
X336470Y601958D01*
X332750D01*
G01X345150Y609250D02*
Y596750D01*
X351350D01*
G01X356775D02*
X360650Y609250D01*
X364525Y596750D01*
G01X363130Y601125D02*
X358170D01*
G01X373050Y609250D02*
Y596750D01*
G01X369485Y609250D02*
X376615D01*
G01X388550Y596750D02*
X382350D01*
Y609250D01*
X388550D01*
G01X386070Y603208D02*
X382350D01*
G01X394440Y596750D02*
Y609250D01*
X397540D01*
X398780Y608625D01*
X399710Y607792D01*
X400485Y606542D01*
X401105Y605083D01*
X401260Y603000D01*
X401105Y600917D01*
X400485Y599458D01*
X399710Y598208D01*
X398780Y597375D01*
X397540Y596750D01*
X394440D01*
G01X278500Y790500D02*
Y590500D01*
G01X307950Y621750D02*
Y634250D01*
X311670D01*
X312910Y633625D01*
X313840Y632167D01*
X314150Y630500D01*
X313840Y628833D01*
X313065Y627583D01*
X311670Y626958D01*
X307950D01*
G01X320350Y634250D02*
Y621750D01*
X326550D01*
G01X331975D02*
X335850Y634250D01*
X339725Y621750D01*
G01X338330Y626125D02*
X333370D01*
G01X348250Y634250D02*
Y621750D01*
G01X344685Y634250D02*
X351815D01*
G01X363750Y621750D02*
X357550D01*
Y634250D01*
X363750D01*
G01X361270Y628208D02*
X357550D01*
G01X369640Y621750D02*
Y634250D01*
X372740D01*
X373980Y633625D01*
X374910Y632792D01*
X375685Y631542D01*
X376305Y630083D01*
X376460Y628000D01*
X376305Y625917D01*
X375685Y624458D01*
X374910Y623208D01*
X373980Y622375D01*
X372740Y621750D01*
X369640D01*
G01X307950Y646750D02*
Y659250D01*
X311670D01*
X312910Y658625D01*
X313840Y657167D01*
X314150Y655500D01*
X313840Y653833D01*
X313065Y652583D01*
X311670Y651958D01*
X307950D01*
G01X320350Y659250D02*
Y646750D01*
X326550D01*
G01X331975D02*
X335850Y659250D01*
X339725Y646750D01*
G01X338330Y651125D02*
X333370D01*
G01X348250Y659250D02*
Y646750D01*
G01X344685Y659250D02*
X351815D01*
G01X363750Y646750D02*
X357550D01*
Y659250D01*
X363750D01*
G01X361270Y653208D02*
X357550D01*
G01X369640Y646750D02*
Y659250D01*
X372740D01*
X373980Y658625D01*
X374910Y657792D01*
X375685Y656542D01*
X376305Y655083D01*
X376460Y653000D01*
X376305Y650917D01*
X375685Y649458D01*
X374910Y648208D01*
X373980Y647375D01*
X372740Y646750D01*
X369640D01*
G01X307950Y671750D02*
Y684250D01*
X311670D01*
X312910Y683625D01*
X313840Y682167D01*
X314150Y680500D01*
X313840Y678833D01*
X313065Y677583D01*
X311670Y676958D01*
X307950D01*
G01X320350Y684250D02*
Y671750D01*
X326550D01*
G01X331975D02*
X335850Y684250D01*
X339725Y671750D01*
G01X338330Y676125D02*
X333370D01*
G01X348250Y684250D02*
Y671750D01*
G01X344685Y684250D02*
X351815D01*
G01X363750Y671750D02*
X357550D01*
Y684250D01*
X363750D01*
G01X361270Y678208D02*
X357550D01*
G01X369640Y671750D02*
Y684250D01*
X372740D01*
X373980Y683625D01*
X374910Y682792D01*
X375685Y681542D01*
X376305Y680083D01*
X376460Y678000D01*
X376305Y675917D01*
X375685Y674458D01*
X374910Y673208D01*
X373980Y672375D01*
X372740Y671750D01*
X369640D01*
G01X307950Y696750D02*
Y709250D01*
X311670D01*
X312910Y708625D01*
X313840Y707167D01*
X314150Y705500D01*
X313840Y703833D01*
X313065Y702583D01*
X311670Y701958D01*
X307950D01*
G01X320350Y709250D02*
Y696750D01*
X326550D01*
G01X331975D02*
X335850Y709250D01*
X339725Y696750D01*
G01X338330Y701125D02*
X333370D01*
G01X348250Y709250D02*
Y696750D01*
G01X344685Y709250D02*
X351815D01*
G01X363750Y696750D02*
X357550D01*
Y709250D01*
X363750D01*
G01X361270Y703208D02*
X357550D01*
G01X369640Y696750D02*
Y709250D01*
X372740D01*
X373980Y708625D01*
X374910Y707792D01*
X375685Y706542D01*
X376305Y705083D01*
X376460Y703000D01*
X376305Y700917D01*
X375685Y699458D01*
X374910Y698208D01*
X373980Y697375D01*
X372740Y696750D01*
X369640D01*
G01X307950Y721750D02*
Y734250D01*
X311670D01*
X312910Y733625D01*
X313840Y732167D01*
X314150Y730500D01*
X313840Y728833D01*
X313065Y727583D01*
X311670Y726958D01*
X307950D01*
G01X320350Y734250D02*
Y721750D01*
X326550D01*
G01X331975D02*
X335850Y734250D01*
X339725Y721750D01*
G01X338330Y726125D02*
X333370D01*
G01X348250Y734250D02*
Y721750D01*
G01X344685Y734250D02*
X351815D01*
G01X363750Y721750D02*
X357550D01*
Y734250D01*
X363750D01*
G01X361270Y728208D02*
X357550D01*
G01X369640Y721750D02*
Y734250D01*
X372740D01*
X373980Y733625D01*
X374910Y732792D01*
X375685Y731542D01*
X376305Y730083D01*
X376460Y728000D01*
X376305Y725917D01*
X375685Y724458D01*
X374910Y723208D01*
X373980Y722375D01*
X372740Y721750D01*
X369640D01*
G01X307950Y771750D02*
Y784250D01*
X311670D01*
X312910Y783625D01*
X313840Y782167D01*
X314150Y780500D01*
X313840Y778833D01*
X313065Y777583D01*
X311670Y776958D01*
X307950D01*
G01X320350Y784250D02*
Y771750D01*
X326550D01*
G01X331975D02*
X335850Y784250D01*
X339725Y771750D01*
G01X338330Y776125D02*
X333370D01*
G01X348250Y784250D02*
Y771750D01*
G01X344685Y784250D02*
X351815D01*
G01X363750Y771750D02*
X357550D01*
Y784250D01*
X363750D01*
G01X361270Y778208D02*
X357550D01*
G01X369640Y771750D02*
Y784250D01*
X372740D01*
X373980Y783625D01*
X374910Y782792D01*
X375685Y781542D01*
X376305Y780083D01*
X376460Y778000D01*
X376305Y775917D01*
X375685Y774458D01*
X374910Y773208D01*
X373980Y772375D01*
X372740Y771750D01*
X369640D01*
G01X307950Y746750D02*
Y759250D01*
X311670D01*
X312910Y758625D01*
X313840Y757167D01*
X314150Y755500D01*
X313840Y753833D01*
X313065Y752583D01*
X311670Y751958D01*
X307950D01*
G01X320350Y759250D02*
Y746750D01*
X326550D01*
G01X331975D02*
X335850Y759250D01*
X339725Y746750D01*
G01X338330Y751125D02*
X333370D01*
G01X348250Y759250D02*
Y746750D01*
G01X344685Y759250D02*
X351815D01*
G01X363750Y746750D02*
X357550D01*
Y759250D01*
X363750D01*
G01X361270Y753208D02*
X357550D01*
G01X369640Y746750D02*
Y759250D01*
X372740D01*
X373980Y758625D01*
X374910Y757792D01*
X375685Y756542D01*
X376305Y755083D01*
X376460Y753000D01*
X376305Y750917D01*
X375685Y749458D01*
X374910Y748208D01*
X373980Y747375D01*
X372740Y746750D01*
X369640D01*
G01X358990Y332625D02*
X359920Y331583D01*
X361005Y330958D01*
X362400Y330750D01*
X363795Y331167D01*
X364880Y332000D01*
X365655Y333458D01*
X365810Y335125D01*
X365500Y336792D01*
X364725Y337833D01*
X363640Y338667D01*
X362555Y338875D01*
X361470Y338667D01*
X360075Y337833D01*
X360540Y343250D01*
X364725D01*
G01X374800Y330333D02*
X374490Y330542D01*
Y330958D01*
X374800Y331167D01*
X375110Y330958D01*
Y330542D01*
X374800Y330333D01*
G01X383790Y332625D02*
X384720Y331583D01*
X385805Y330958D01*
X387200Y330750D01*
X388595Y331167D01*
X389680Y332000D01*
X390455Y333458D01*
X390610Y335125D01*
X390300Y336792D01*
X389525Y337833D01*
X388440Y338667D01*
X387355Y338875D01*
X386270Y338667D01*
X384875Y337833D01*
X385340Y343250D01*
X389525D01*
G01X399600Y330750D02*
Y343250D01*
X397740Y340750D01*
G01Y330750D02*
X401460D01*
G01X354331Y561181D02*
Y583000D01*
G01X339331Y570500D02*
X354331Y573000D01*
X339331Y575500D01*
Y570500D01*
G01X364331Y0D02*
X391000D01*
G01X381000Y321375D02*
Y0D01*
G01X378500Y15000D02*
X381000Y0D01*
X383500Y15000D01*
X378500D01*
G01X381000Y352625D02*
Y551181D01*
G01X364331D02*
X391000D01*
G01X383500Y536181D02*
X381000Y551181D01*
X378500Y536181D01*
X383500D01*
G01X405600Y790500D02*
Y590500D01*
G01X446210Y621750D02*
Y634250D01*
X440475Y625292D01*
X448225D01*
G01X446210Y596750D02*
Y609250D01*
X440475Y600292D01*
X448225D01*
G01X441405Y651958D02*
X442490Y653417D01*
X443420Y654250D01*
X444660Y654667D01*
X445745Y654250D01*
X446520Y653417D01*
X447140Y652167D01*
X447295Y650708D01*
X447140Y649458D01*
X446520Y648208D01*
X445590Y647167D01*
X444505Y646750D01*
X443265Y647167D01*
X442180Y648416D01*
X441560Y650292D01*
X441405Y652375D01*
X441715Y655083D01*
X442180Y656542D01*
X442955Y658000D01*
X444040Y659042D01*
X445125Y659250D01*
X446210Y658833D01*
X446985Y657792D01*
G01X435515Y673208D02*
X436600Y672167D01*
X437840Y671750D01*
X439080Y672167D01*
X440165Y673416D01*
X440940Y675292D01*
X441250Y677167D01*
Y679458D01*
X440940Y681333D01*
X440165Y683000D01*
X439235Y683833D01*
X438150Y684250D01*
X436910Y683833D01*
X435980Y683000D01*
X435360Y681750D01*
X435050Y680083D01*
X435360Y678625D01*
X436135Y677167D01*
X437065Y676333D01*
X438150Y676125D01*
X439390Y676541D01*
X440320Y677583D01*
X441250Y679458D01*
G01X447140Y673625D02*
X448070Y672583D01*
X449155Y671958D01*
X450550Y671750D01*
X451945Y672167D01*
X453030Y673000D01*
X453805Y674458D01*
X453960Y676125D01*
X453650Y677792D01*
X452875Y678833D01*
X451790Y679667D01*
X450705Y679875D01*
X449620Y679667D01*
X448225Y678833D01*
X448690Y684250D01*
X452875D01*
G01X440010Y696750D02*
Y709250D01*
X434275Y700292D01*
X442025D01*
G01X450550Y709250D02*
X449310Y708833D01*
X448380Y707792D01*
X447760Y706542D01*
X447295Y704875D01*
X447140Y703000D01*
X447295Y701125D01*
X447760Y699458D01*
X448380Y698208D01*
X449310Y697167D01*
X450550Y696750D01*
X451790Y697167D01*
X452720Y698208D01*
X453340Y699458D01*
X453805Y701125D01*
X453960Y703000D01*
X453805Y704875D01*
X453340Y706542D01*
X452720Y707792D01*
X451790Y708833D01*
X450550Y709250D01*
G01X438150Y721750D02*
Y734250D01*
X436290Y731750D01*
G01Y721750D02*
X440010D01*
G01X450550Y734250D02*
X449310Y733833D01*
X448380Y732792D01*
X447760Y731542D01*
X447295Y729875D01*
X447140Y728000D01*
X447295Y726125D01*
X447760Y724458D01*
X448380Y723208D01*
X449310Y722167D01*
X450550Y721750D01*
X451790Y722167D01*
X452720Y723208D01*
X453340Y724458D01*
X453805Y726125D01*
X453960Y728000D01*
X453805Y729875D01*
X453340Y731542D01*
X452720Y732792D01*
X451790Y733833D01*
X450550Y734250D01*
G01X431950Y771750D02*
X430710Y771958D01*
X429625Y772791D01*
X428695Y774042D01*
X428075Y775500D01*
X427765Y777167D01*
Y778833D01*
X428075Y780500D01*
X428695Y781958D01*
X429625Y783208D01*
X430710Y784042D01*
X431950Y784250D01*
X433190Y784042D01*
X434275Y783208D01*
X435205Y781958D01*
X435825Y780500D01*
X436135Y778833D01*
Y777167D01*
X435825Y775500D01*
X435205Y774042D01*
X434275Y772791D01*
X433190Y771958D01*
X431950Y771750D01*
G01X433190Y775083D02*
X435050Y771750D01*
G01X444350Y784250D02*
Y771750D01*
G01X440785Y784250D02*
X447915D01*
G01X456750Y771750D02*
Y777375D01*
X453650Y784250D01*
G01X459850D02*
X456750Y777375D01*
G01X434740Y748625D02*
X435670Y747583D01*
X436755Y746958D01*
X438150Y746750D01*
X439545Y747167D01*
X440630Y748000D01*
X441405Y749458D01*
X441560Y751125D01*
X441250Y752792D01*
X440475Y753833D01*
X439390Y754667D01*
X438305Y754875D01*
X437220Y754667D01*
X435825Y753833D01*
X436290Y759250D01*
X440475D01*
G01X447915Y748208D02*
X449000Y747167D01*
X450240Y746750D01*
X451480Y747167D01*
X452565Y748416D01*
X453340Y750292D01*
X453650Y752167D01*
Y754458D01*
X453340Y756333D01*
X452565Y758000D01*
X451635Y758833D01*
X450550Y759250D01*
X449310Y758833D01*
X448380Y758000D01*
X447760Y756750D01*
X447450Y755083D01*
X447760Y753625D01*
X448535Y752167D01*
X449465Y751333D01*
X450550Y751125D01*
X451790Y751541D01*
X452720Y752583D01*
X453650Y754458D01*
M02*
