G04 ================== begin FILE IDENTIFICATION RECORD ==================*
G04 Layout Name:  D:/proiecte orcad/Masinuta_Wi-Fi/allegro/MASINUTA_WI-FI.brd*
G04 Film Name:    SMTOP*
G04 File Format:  Gerber RS274X*
G04 File Origin:  Cadence Allegro 16.6-2015-S059*
G04 Origin Date:  Fri Apr 28 20:23:30 2023*
G04 *
G04 Layer:  VIA CLASS/SOLDERMASK_TOP*
G04 Layer:  PIN/SOLDERMASK_TOP*
G04 Layer:  DRC ERROR CLASS/SOLDERMASK_TOP*
G04 *
G04 Offset:    (0.00 0.00)*
G04 Mirror:    No*
G04 Mode:      Positive*
G04 Rotation:  0*
G04 FullContactRelief:  No*
G04 UndefLineWidth:     0.00*
G04 ================== end FILE IDENTIFICATION RECORD ====================*
%FSLAX25Y25*MOIN*%
%IR0*IPPOS*OFA0.00000B0.00000*MIA0B0*SFA1.00000B1.00000*%
%ADD22C,.07*%
%ADD13C,.044*%
%ADD19C,.09*%
%ADD12C,.075*%
%ADD18R,.06X.06*%
%ADD16C,.085*%
%ADD20R,.09X.09*%
%ADD21C,.05039*%
%ADD15R,.075X.075*%
%ADD17R,.085X.085*%
%ADD14R,.06693X.06693*%
%ADD23R,.06685X.06685*%
%ADD11C,.11024*%
%ADD10C,.17*%
%LPD*%
G75*
G54D10*
X20000Y20000D03*
Y531000D03*
X334500Y20000D03*
Y531000D03*
G54D11*
X29362Y51976D03*
Y174024D03*
X324638Y51976D03*
Y174024D03*
G54D20*
X93800Y453400D03*
X143400Y453300D03*
G54D21*
X330606Y380000D03*
X311394D03*
G54D12*
X30000Y229000D03*
X20000D03*
X30000Y259000D03*
X20000D03*
X30000Y288000D03*
X20000D03*
X32000Y343283D03*
X28921Y457400D03*
X28621Y490600D03*
X57000Y229000D03*
Y259000D03*
Y288000D03*
X62000Y343283D03*
X52000D03*
X42000D03*
X62000Y353283D03*
X52000D03*
X42000D03*
X59921Y456100D03*
X59121Y490300D03*
X63000Y526000D03*
X53000D03*
X67000Y229000D03*
Y259000D03*
Y288000D03*
X117000Y338000D03*
X107000D03*
X102500Y367000D03*
Y377000D03*
Y387000D03*
Y397000D03*
Y407000D03*
Y417000D03*
X137000Y338000D03*
X127000D03*
X142500Y377000D03*
Y367000D03*
Y407000D03*
Y397000D03*
Y387000D03*
Y417000D03*
X196000Y267000D03*
Y277000D03*
Y287000D03*
Y297000D03*
Y307000D03*
Y317000D03*
Y327000D03*
Y337000D03*
Y347000D03*
Y357000D03*
Y367000D03*
Y377000D03*
Y387000D03*
Y397000D03*
Y407000D03*
Y417000D03*
Y427000D03*
Y437000D03*
Y447000D03*
Y457000D03*
X256000Y287000D03*
Y277000D03*
Y317000D03*
Y307000D03*
Y297000D03*
Y347000D03*
Y337000D03*
Y327000D03*
Y377000D03*
Y367000D03*
Y357000D03*
Y407000D03*
Y397000D03*
Y387000D03*
Y437000D03*
Y427000D03*
Y417000D03*
Y457000D03*
Y447000D03*
X268000Y520000D03*
Y510000D03*
X296000Y201000D03*
Y225000D03*
X285000Y248000D03*
Y258000D03*
Y268000D03*
Y278000D03*
Y288000D03*
Y298000D03*
Y308000D03*
X298000Y520000D03*
X288000D03*
X278000D03*
X298000Y510000D03*
X288000D03*
X278000D03*
X325000Y201000D03*
X306000D03*
X325000Y225000D03*
X306000D03*
X315000Y258000D03*
Y248000D03*
Y288000D03*
Y278000D03*
Y268000D03*
X331500Y304000D03*
X315000Y308000D03*
Y298000D03*
X330000Y457000D03*
X320000D03*
X310000D03*
X308000Y520000D03*
Y510000D03*
X335000Y201000D03*
Y225000D03*
X341500Y304000D03*
G54D13*
X12000Y277500D03*
X60500Y247500D03*
X79000Y300000D03*
X90500Y351000D03*
X109000Y242000D03*
X98000Y273000D03*
X99000Y262000D03*
X101500Y300000D03*
X120500Y330000D03*
X113000Y372000D03*
X100000Y353500D03*
X143500Y226500D03*
X130000Y243500D03*
X123000Y234500D03*
X151000Y261500D03*
X138000Y298000D03*
X122500Y307000D03*
X149500Y330000D03*
X131300Y411400D03*
X160000Y220500D03*
X174600Y210400D03*
X171000Y220000D03*
X162500Y234000D03*
X156000Y306000D03*
X177000Y324000D03*
X164500Y357250D03*
X171500Y415000D03*
X156600D03*
X191000Y191000D03*
X185000Y210000D03*
X197500Y256000D03*
X205000D03*
X187300Y483200D03*
X234000Y249000D03*
X217500Y256000D03*
X211500D03*
X224000Y469600D03*
X242000Y357000D03*
X268000Y467500D03*
Y499000D03*
X246000Y478000D03*
X296000Y301500D03*
X299000Y316500D03*
X287000Y347000D03*
X272500Y327500D03*
Y337000D03*
X282000Y351500D03*
X288000Y450000D03*
X277500Y467500D03*
X272500D03*
X288000Y479500D03*
X294500Y493500D03*
X320000Y318315D03*
X310000Y319000D03*
X315250Y345750D03*
X322000Y360000D03*
X310500Y395500D03*
X303000Y400500D03*
X317500Y385000D03*
X305500Y442500D03*
X302750Y492750D03*
X331750Y261250D03*
X344090Y270500D03*
G54D22*
X332591Y411283D03*
X307000D03*
X332591Y429000D03*
G54D23*
X307000D03*
G54D14*
X32000Y353283D03*
G54D15*
X19079Y457400D03*
X18779Y490600D03*
X50079Y456100D03*
X49279Y490300D03*
X256000Y267000D03*
G54D16*
X61016Y174024D03*
X91016D03*
X81016D03*
X71016D03*
X121016D03*
X111016D03*
X101016D03*
X131016D03*
X151016D03*
X141016D03*
X181016D03*
X171016D03*
X161016D03*
X201016D03*
X191016D03*
G54D17*
X51016D03*
G54D18*
X103000Y252000D03*
X111400D03*
X103000Y284000D03*
X111400D03*
X104000Y315000D03*
X112400D03*
X133000Y252000D03*
X141400D03*
X134000Y284000D03*
X142400D03*
X133000Y315000D03*
X141400D03*
X217000Y241000D03*
X225400D03*
X241000D03*
X249400D03*
X302000Y328000D03*
X310400D03*
X326000D03*
Y349000D03*
X334400Y328000D03*
Y349000D03*
G54D19*
X113800Y453400D03*
X103800D03*
X153400Y453300D03*
X163400D03*
M02*
