G04 ================== begin FILE IDENTIFICATION RECORD ==================*
G04 Layout Name:  D:/proiecte orcad/Masinuta_Wi-Fi/allegro/MASINUTA_WI-FI.brd*
G04 Film Name:    SSTOP*
G04 File Format:  Gerber RS274X*
G04 File Origin:  Cadence Allegro 16.6-2015-S059*
G04 Origin Date:  Fri Apr 28 20:23:30 2023*
G04 *
G04 Layer:  REF DES/SILKSCREEN_TOP*
G04 Layer:  PACKAGE GEOMETRY/SILKSCREEN_TOP*
G04 Layer:  BOARD GEOMETRY/SILKSCREEN_TOP*
G04 *
G04 Offset:    (0.00 0.00)*
G04 Mirror:    No*
G04 Mode:      Positive*
G04 Rotation:  0*
G04 FullContactRelief:  No*
G04 UndefLineWidth:     0.00*
G04 ================== end FILE IDENTIFICATION RECORD ====================*
%FSLAX25Y25*MOIN*%
%IR0*IPPOS*OFA0.00000B0.00000*MIA0B0*SFA1.00000B1.00000*%
%ADD10C,.005*%
%ADD11C,.006*%
%ADD12C,.008*%
%ADD13C,.00787*%
G75*
%LPD*%
G75*
G54D10*
G01X18220Y337378D02*
Y434622D01*
X74913D01*
Y337378D01*
X18220D01*
G01X74913Y408244D02*
X18220D01*
G01X36402Y457400D02*
G03I-12402J0D01*
G01X36102Y490600D02*
G03I-12402J0D01*
G01X67402Y456100D02*
G03I-12402J0D01*
G01X66602Y490300D02*
G03I-12402J0D01*
G01X298362Y380000D02*
G03X307535Y370827I9167J-6D01*
G01Y389173D02*
G03X298362Y380000I-6J-9167D01*
G01X307535Y370827D02*
X334465D01*
G01X307535Y389173D02*
X334465D01*
G01X327669Y408350D02*
X311921D01*
G01X326705Y420142D02*
G03I-6910J0D01*
G01X308004Y424079D02*
Y416205D01*
G01X311921Y431933D02*
X327669D01*
G01X334465Y370827D02*
G03X343638Y380000I6J9167D01*
G01D02*
G03X334465Y389173I-9167J6D01*
G01X331587Y424079D02*
Y416205D01*
G54D11*
G01X83000Y446200D02*
X124600D01*
Y464600D01*
X83000D01*
Y446200D01*
G01X115200Y248250D02*
X99200D01*
G01D02*
Y255750D01*
G01D02*
X115200D01*
G01D02*
Y248250D01*
G01Y280250D02*
X99200D01*
G01D02*
Y287750D01*
G01D02*
X115200D01*
G01D02*
Y280250D01*
G01X116200Y311250D02*
X100200D01*
G01D02*
Y318750D01*
G01D02*
X116200D01*
G01D02*
Y311250D01*
G01X145200Y248250D02*
X129200D01*
G01D02*
Y255750D01*
G01D02*
X145200D01*
G01D02*
Y248250D01*
G01X146200Y280250D02*
X130200D01*
G01D02*
Y287750D01*
G01D02*
X146200D01*
G01D02*
Y280250D01*
G01X145200Y311250D02*
X129200D01*
G01D02*
Y318750D01*
G01D02*
X145200D01*
G01D02*
Y311250D01*
G01X132600Y446100D02*
X174200D01*
Y464500D01*
X132600D01*
Y446100D01*
G01X229200Y237250D02*
X213200D01*
G01D02*
Y244750D01*
G01D02*
X229200D01*
G01D02*
Y237250D01*
G01X253200D02*
X237200D01*
G01D02*
Y244750D01*
G01D02*
X253200D01*
G01D02*
Y237250D01*
G01X314200Y324250D02*
X298200D01*
G01D02*
Y331750D01*
G01D02*
X314200D01*
G01D02*
Y324250D01*
G01X338200D02*
X322200D01*
G01D02*
Y331750D01*
G01D02*
X338200D01*
G01Y345250D02*
X322200D01*
G01D02*
Y352750D01*
G01D02*
X338200D01*
G01Y331750D02*
Y324250D01*
G01Y352750D02*
Y345250D01*
G54D12*
G01X19520Y183866D02*
X334480D01*
Y42134D01*
X19520D01*
Y183866D01*
G01X36646Y164772D02*
X317354D01*
Y61228D01*
X36646D01*
Y164772D01*
G01X50031Y145283D02*
X303969D01*
Y80717D01*
X50031D01*
Y145283D01*
G54D13*
G01X15661Y353283D02*
G03I-393J0D01*
G01X9039Y457400D02*
G03I-393J0D01*
G01X8739Y490600D02*
G03I-393J0D01*
G01X40039Y456100D02*
G03I-393J0D01*
G01X39239Y490300D02*
G03I-393J0D01*
M02*
