G04 ================== begin FILE IDENTIFICATION RECORD ==================*
G04 Layout Name:  C:/Masinuta_Wi-Fi/allegro/MASINUTA_WI-FI.brd*
G04 Film Name:    TOP*
G04 File Format:  Gerber RS274X*
G04 File Origin:  Cadence Allegro 16.6-2015-S059*
G04 Origin Date:  Sat May 20 14:57:48 2023*
G04 *
G04 Layer:  ETCH/TOP*
G04 Layer:  PIN/TOP*
G04 Layer:  VIA CLASS/TOP*
G04 *
G04 Offset:    (0.00 0.00)*
G04 Mirror:    No*
G04 Mode:      Positive*
G04 Rotation:  0*
G04 FullContactRelief:  No*
G04 UndefLineWidth:     10.00*
G04 ================== end FILE IDENTIFICATION RECORD ====================*
%FSLAX25Y25*MOIN*%
%IR0*IPPOS*OFA0.00000B0.00000*MIA0B0*SFA1.00000B1.00000*%
%ADD16C,.024*%
%ADD12C,.06*%
%ADD14C,.07*%
%ADD18C,.075*%
%ADD17R,.05X.05*%
%ADD13R,.06X.06*%
%ADD15R,.07X.07*%
%ADD19R,.075X.075*%
%ADD10C,.16*%
%ADD11C,.11024*%
%ADD20C,.02*%
%ADD21C,.04*%
G75*
%LPD*%
G75*
G54D10*
X20000Y20000D03*
Y531000D03*
X334500Y20000D03*
Y531000D03*
G54D20*
G01X57000Y229000D02*
X49500Y221500D01*
X27500D01*
X20000Y229000D01*
G01Y288000D02*
Y259000D01*
G01X57000D02*
Y288000D01*
G01Y259000D02*
Y248500D01*
X61000Y244500D01*
G01X162500Y234000D02*
X140992D01*
X81016Y174024D01*
G01X62000Y353283D02*
X84500D01*
G01X101016Y174024D02*
Y184016D01*
X143500Y226500D01*
G01X109000Y242000D02*
X106300D01*
X103000Y245300D01*
Y252000D01*
G01X99000Y262000D02*
X106400D01*
X111400Y257000D01*
Y252000D01*
G01X134500Y300500D02*
X119500D01*
X103000Y284000D01*
G01X100500Y273000D02*
X105500D01*
X111400Y278900D01*
Y284000D01*
G01X159500Y304000D02*
X156000Y300500D01*
Y275000D01*
X133000Y252000D01*
G01X128500Y243000D02*
X132400D01*
X141400Y252000D01*
G01X122500Y307000D02*
Y310500D01*
X127000Y315000D01*
X133000D01*
G01X127000Y338000D02*
X136500Y347500D01*
X145500D01*
X196000Y297000D01*
G01X160000Y220500D02*
X151016Y211516D01*
Y174024D01*
G01X174750Y211750D02*
X171016Y208016D01*
Y174024D01*
G01X171000Y220000D02*
X161016Y210016D01*
Y174024D01*
G01X192000Y256000D02*
X163500D01*
X158000Y261500D01*
G01X153000Y330000D02*
X196000Y287000D01*
G01Y347000D02*
X177000Y328000D01*
Y324000D01*
G01X173000Y402500D02*
X188500Y418000D01*
Y439500D01*
X196000Y447000D01*
G01X185500Y210500D02*
X181016Y206016D01*
Y174024D01*
G01X196000Y249500D02*
X205660Y259160D01*
Y297340D01*
X196000Y307000D01*
G01X218000Y255000D02*
Y305000D01*
X196000Y327000D01*
G01X211000Y255500D02*
Y302000D01*
X196000Y317000D01*
G01X234000Y251500D02*
Y259500D01*
X224500Y269000D01*
Y308500D01*
X196000Y337000D01*
G01X187300Y483200D02*
X189210Y485110D01*
X251890D01*
X261800Y475200D01*
Y432800D01*
X256000Y427000D01*
G01Y347000D02*
X247500Y338500D01*
Y262000D01*
X241000Y255500D01*
Y241000D01*
G01X268000Y462500D02*
Y329000D01*
X256000Y317000D01*
G01X278000Y461000D02*
Y326000D01*
X267500Y315500D01*
G01X325000Y201000D02*
X318500Y194500D01*
X302500D01*
X296000Y201000D01*
G01X325000Y225000D02*
X318000Y218000D01*
X303000D01*
X296000Y225000D01*
G01X300000Y403500D02*
X295500Y399000D01*
Y352000D01*
X315000Y332500D01*
Y324000D01*
G01X305400Y332000D02*
Y337000D01*
X295400Y347000D01*
X290500D01*
G01X307000Y411283D02*
X298284D01*
X290500Y403499D01*
Y347000D01*
G01X273000Y468000D02*
Y337000D01*
G01X288000Y450000D02*
Y430283D01*
X307000Y411283D01*
G01X288000Y510000D02*
X282000Y504000D01*
Y485500D01*
X288000Y479500D01*
G01X298000Y488000D02*
X308000Y498000D01*
Y510000D01*
G01X289500Y493500D02*
X294500D01*
X298000Y497000D01*
Y510000D01*
G01X344090Y270500D02*
Y198090D01*
X340000Y194000D01*
X332000D01*
X325000Y201000D01*
G01X315000Y258000D02*
X325000Y248000D01*
Y225000D01*
G01X306000Y201000D02*
Y207500D01*
X311500Y213000D01*
X338500D01*
X340500Y215000D01*
Y262500D01*
X315000Y288000D01*
G01X306000Y201000D02*
X313000Y208000D01*
X328000D01*
X335000Y201000D01*
G01X315000Y278000D02*
X331750Y261250D01*
G01X303500Y394000D02*
Y349000D01*
X322650Y329850D01*
Y324350D01*
G01X311394Y380000D02*
Y363606D01*
X326000Y349000D01*
G01X313500Y351500D02*
Y347000D01*
X329000Y331500D01*
X333000D01*
G01X324750Y362750D02*
X330606Y368606D01*
Y380000D01*
G01D02*
Y391894D01*
X324000Y398500D01*
G01X320000Y457000D02*
X305500Y442500D01*
X300500D01*
G54D11*
X29362Y51976D03*
Y174024D03*
X324638Y51976D03*
Y174024D03*
G54D21*
G01X30000Y229000D02*
X37000D01*
X44500Y236500D01*
X59500D01*
X67000Y229000D01*
G01X30000D02*
X35000Y234000D01*
Y254000D01*
X30000Y259000D01*
G01D02*
X36000Y265000D01*
Y282000D01*
X30000Y288000D01*
G01D02*
X19717Y298283D01*
Y341000D01*
X32000Y353283D01*
G01X28921Y457400D02*
X39321Y447000D01*
X56321D01*
X59921Y450600D01*
Y456100D01*
G01X19079Y457400D02*
X35479Y441000D01*
X97650D01*
X103800Y447150D01*
Y453400D01*
G01X28621Y490600D02*
Y496100D01*
X34521Y502000D01*
X52921D01*
X59121Y495800D01*
Y490300D01*
G01X18779Y490600D02*
Y500779D01*
X44000Y526000D01*
X53000D01*
G01X18779Y490600D02*
Y482734D01*
X45413Y456100D01*
X50079D01*
G01X51016Y174024D02*
X60540Y164500D01*
X81492D01*
X91016Y174024D01*
G01X51016D02*
Y213016D01*
X67000Y229000D01*
G01X42000Y343283D02*
X52000D01*
G01D02*
X62000D01*
G01X59921Y456100D02*
X68221Y447800D01*
X87700D01*
X93300Y453400D01*
X93800D01*
G01X113800D02*
X101800Y465400D01*
X59379D01*
X50079Y456100D01*
G01X59121Y490300D02*
X69600Y500779D01*
Y519400D01*
X63000Y526000D01*
G01X163400Y453300D02*
X134300Y482400D01*
X57179D01*
X49279Y490300D01*
G01X217000Y241000D02*
X137992D01*
X71016Y174024D01*
G01X67000Y229000D02*
X73000Y235000D01*
Y253000D01*
X67000Y259000D01*
G01D02*
X74500Y266500D01*
Y280500D01*
X67000Y288000D01*
G01X122500Y235000D02*
X97000D01*
X90000Y242000D01*
Y301000D01*
X104000Y315000D01*
G01X67000Y288000D02*
X79000Y300000D01*
G01X96000Y359500D02*
Y352033D01*
X87250Y343283D01*
X62000D01*
G01X96000Y359500D02*
X80900Y374600D01*
Y416700D01*
X108220Y444020D01*
Y448980D01*
X103800Y453400D01*
G01X256000Y397000D02*
X236000Y417000D01*
Y470200D01*
X229100Y477100D01*
X192600D01*
X178500Y463000D01*
Y446000D01*
X170800Y438300D01*
X112800D01*
X88200Y413700D01*
Y391300D01*
X102500Y377000D01*
G01X122500Y235000D02*
X119883Y237617D01*
Y269883D01*
X134000Y284000D01*
G01X112400Y315000D02*
X119400Y322000D01*
X135526D01*
X141400Y316126D01*
Y315136D01*
G01X112400Y315000D02*
Y310900D01*
X101500Y300000D01*
G01X107000Y338000D02*
X98500Y329500D01*
Y320500D01*
X104000Y315000D01*
G01X107000Y338000D02*
X124000Y355000D01*
X146500D01*
X161500Y370000D01*
Y401500D01*
G01X113800Y453400D02*
X119100Y448100D01*
X138200D01*
X143400Y453300D01*
G01X142400Y284000D02*
X149000Y290600D01*
Y307400D01*
X141400Y315000D01*
G01Y315136D02*
Y315000D01*
G01Y315136D02*
X144500Y318236D01*
Y330500D01*
X137000Y338000D01*
G01X159750Y419250D02*
Y414250D01*
X142500Y397000D01*
G01X131000Y428000D02*
X169500D01*
X186000Y444500D01*
Y458900D01*
X196700Y469600D01*
X224000D01*
G01X196000Y357000D02*
X164500D01*
G01X161500Y401500D02*
X196000Y367000D01*
G01X163400Y453300D02*
Y471400D01*
X212000Y520000D01*
X268000D01*
G01X201016Y174024D02*
Y182016D01*
X225400Y206400D01*
Y241000D01*
G01X191016Y174024D02*
Y187284D01*
X191000Y187300D01*
Y191000D01*
G01X196000Y357000D02*
X233000D01*
G01X196000Y367000D02*
X246000D01*
X256000Y357000D01*
G01X225400Y241000D02*
X233900Y232500D01*
X245900D01*
X249400Y236000D01*
Y241000D01*
G01X285000Y308000D02*
X267500Y290500D01*
Y245000D01*
X263500Y241000D01*
X249400D01*
G01X246000Y478000D02*
X248617Y475383D01*
Y414283D01*
X252010Y410890D01*
X252110D01*
X256000Y407000D01*
G01X310000Y457000D02*
X297000D01*
X256500Y497500D01*
Y508500D01*
X268000Y520000D01*
G01X285000Y248000D02*
X275500Y257500D01*
Y288500D01*
X285000Y298000D01*
G01Y308000D02*
X294500Y317500D01*
X305500D01*
X315000Y308000D01*
G01X297000Y332000D02*
Y329500D01*
X287000Y319500D01*
G01D02*
X283500Y323000D01*
Y357000D01*
G01X341500Y304000D02*
X333500Y312000D01*
X319000D01*
X315000Y308000D01*
G01Y298000D02*
X321000Y304000D01*
X331500D01*
G01X334400Y349000D02*
X341000Y355600D01*
Y389551D01*
X307000Y423551D01*
Y429000D01*
G01D02*
X318500D01*
X330000Y440500D01*
Y457000D01*
G01D02*
Y498000D01*
X308000Y520000D01*
G01X341500Y304000D02*
X345500Y308000D01*
Y322400D01*
X341400Y326500D01*
Y331500D01*
G01X334400Y349000D02*
X341400Y342000D01*
Y331500D01*
G54D12*
X30000Y229000D03*
X20000D03*
X30000Y259000D03*
X20000D03*
X30000Y288000D03*
X20000D03*
X32000Y343283D03*
X28921Y457400D03*
X28621Y490600D03*
X57000Y229000D03*
Y259000D03*
Y288000D03*
X62000Y343283D03*
X52000D03*
X42000D03*
X62000Y353283D03*
X52000D03*
X42000D03*
X59921Y456100D03*
X59121Y490300D03*
X63000Y526000D03*
X53000D03*
X67000Y229000D03*
Y259000D03*
Y288000D03*
X117000Y338000D03*
X107000D03*
X102500Y367000D03*
Y377000D03*
Y387000D03*
Y397000D03*
Y407000D03*
Y417000D03*
X137000Y338000D03*
X127000D03*
X142500Y377000D03*
Y367000D03*
Y407000D03*
Y397000D03*
Y387000D03*
Y417000D03*
X196000Y267000D03*
Y277000D03*
Y287000D03*
Y297000D03*
Y307000D03*
Y317000D03*
Y327000D03*
Y337000D03*
Y347000D03*
Y357000D03*
Y367000D03*
Y377000D03*
Y387000D03*
Y397000D03*
Y407000D03*
Y417000D03*
Y427000D03*
Y437000D03*
Y447000D03*
Y457000D03*
X256000Y287000D03*
Y277000D03*
Y317000D03*
Y307000D03*
Y297000D03*
Y347000D03*
Y337000D03*
Y327000D03*
Y377000D03*
Y367000D03*
Y357000D03*
Y407000D03*
Y397000D03*
Y387000D03*
Y437000D03*
Y427000D03*
Y417000D03*
Y457000D03*
Y447000D03*
X268000Y520000D03*
Y510000D03*
X296000Y201000D03*
Y225000D03*
X285000Y248000D03*
Y258000D03*
Y268000D03*
Y278000D03*
Y288000D03*
Y298000D03*
Y308000D03*
X298000Y520000D03*
X288000D03*
X278000D03*
X298000Y510000D03*
X288000D03*
X278000D03*
X325000Y201000D03*
X306000D03*
X325000Y225000D03*
X306000D03*
X315000Y258000D03*
Y248000D03*
Y288000D03*
Y278000D03*
Y268000D03*
X331500Y304000D03*
X315000Y308000D03*
Y298000D03*
X330606Y380000D03*
X311394D03*
X332591Y411283D03*
X307000D03*
X332591Y429000D03*
X330000Y457000D03*
X320000D03*
X310000D03*
X308000Y520000D03*
Y510000D03*
X335000Y201000D03*
Y225000D03*
X341500Y304000D03*
G54D13*
X32000Y353283D03*
X19079Y457400D03*
X18779Y490600D03*
X50079Y456100D03*
X49279Y490300D03*
X256000Y267000D03*
X307000Y429000D03*
G54D14*
X61016Y174024D03*
X91016D03*
X81016D03*
X71016D03*
X121016D03*
X111016D03*
X101016D03*
X131016D03*
X151016D03*
X141016D03*
X181016D03*
X171016D03*
X161016D03*
X201016D03*
X191016D03*
G54D15*
X51016D03*
G54D16*
X61000Y244500D03*
X79000Y300000D03*
X84500Y353283D03*
X109000Y242000D03*
X100500Y273000D03*
X99000Y262000D03*
X101500Y300000D03*
X96000Y359500D03*
X143500Y226500D03*
X128500Y243000D03*
X122500Y235000D03*
X134500Y300500D03*
X122500Y307000D03*
X131000Y428000D03*
X160000Y220500D03*
X174750Y211750D03*
X171000Y220000D03*
X162500Y234000D03*
X158000Y261500D03*
X159500Y304000D03*
X153000Y330000D03*
X177000Y324000D03*
X164500Y357000D03*
X173000Y402500D03*
X161500Y401500D03*
X159750Y419250D03*
X191000Y191000D03*
X185500Y210500D03*
X192000Y256000D03*
X196000Y249500D03*
X211000Y255500D03*
X187300Y483200D03*
X234000Y251500D03*
X218000Y255000D03*
X233000Y357000D03*
X224000Y469600D03*
X267500Y315500D03*
X268000Y462500D03*
X246000Y478000D03*
X287000Y319500D03*
X290500Y347000D03*
X273000Y337000D03*
X283500Y357000D03*
X300000Y403500D03*
X300500Y442500D03*
X288000Y450000D03*
X278000Y461000D03*
X273000Y468000D03*
X288000Y479500D03*
X298000Y488000D03*
X289500Y493500D03*
X322650Y324350D03*
X315000Y324000D03*
X313500Y351500D03*
X324750Y362750D03*
X303500Y394000D03*
X324000Y398500D03*
X331750Y261250D03*
X344090Y270500D03*
G54D17*
X103000Y252000D03*
X111400D03*
X103000Y284000D03*
X111400D03*
X104000Y315000D03*
X112400D03*
X133000Y252000D03*
X141400D03*
X134000Y284000D03*
X142400D03*
X133000Y315000D03*
X141400D03*
X217000Y241000D03*
X225400D03*
X241000D03*
X249400D03*
X297000Y332000D03*
X305400D03*
X326000Y349000D03*
X333000Y331500D03*
X341400D03*
X334400Y349000D03*
G54D18*
X113800Y453400D03*
X103800D03*
X153400Y453300D03*
X163400D03*
G54D19*
X93800Y453400D03*
X143400Y453300D03*
M02*
